<svg width="32" height="32" viewBox="0 0 32 32" fill="none" xmlns="http://www.w3.org/2000/svg">
<g clip-path="url(#clip0)">
<path d="M16 32C13.9318 32 12.25 30.3182 12.25 28.25C12.25 27.7822 12.3379 27.1138 12.4908 26.375H5.6875C5.16931 26.375 4.75 25.9557 4.75 25.4375V18.3172C4.75 18.0242 4.88644 17.7486 5.11987 17.5711C5.35331 17.3953 5.65544 17.3367 5.93744 17.4136C7.08188 17.7304 8.06787 17.875 8.5 17.875C9.53363 17.875 10.375 17.0336 10.375 16C10.375 14.9664 9.53363 14.125 8.5 14.125C8.06787 14.125 7.08188 14.2696 5.93744 14.5864C5.65363 14.6642 5.35244 14.6066 5.11987 14.4289C4.88644 14.2513 4.75 13.9757 4.75 13.6828V6.5625C4.75 6.04431 5.16931 5.625 5.6875 5.625H12.4908C12.3379 4.88619 12.25 4.21781 12.25 3.75C12.25 1.68181 13.9318 0 16 0C18.0682 0 19.75 1.68181 19.75 3.75C19.75 4.21781 19.6621 4.88619 19.5092 5.625H26.3125C26.8307 5.625 27.25 6.04431 27.25 6.5625V13.6828C27.25 13.9758 27.1136 14.2514 26.8801 14.4289C26.6494 14.6066 26.3473 14.6651 26.0626 14.5864C24.9181 14.2696 23.9321 14.125 23.5 14.125C22.4664 14.125 21.625 14.9664 21.625 16C21.625 17.0336 22.4664 17.875 23.5 17.875C23.9321 17.875 24.9181 17.7304 26.0626 17.4136C26.3464 17.3348 26.6476 17.3943 26.8801 17.5711C27.1136 17.7487 27.25 18.0243 27.25 18.3172V25.4375C27.25 25.9557 26.8307 26.375 26.3125 26.375H19.5092C19.6621 27.1138 19.75 27.7822 19.75 28.25C19.75 30.3182 18.0682 32 16 32Z" fill="url(#paint0_linear)"/>
</g>
<defs>
<linearGradient id="paint0_linear" x1="16" y1="32" x2="16" y2="0" gradientUnits="userSpaceOnUse">
<stop stop-color="#00B59C"/>
<stop offset="1" stop-color="#9CFFAC"/>
</linearGradient>
<clipPath id="clip0">
<rect width="32" height="32" fill="white"/>
</clipPath>
</defs>
</svg>
