<svg width="14" height="20" viewBox="0 0 14 20" fill="none" xmlns="http://www.w3.org/2000/svg">
<path d="M12.5 6.33331C12.5 3.29915 10.0342 0.833313 7.00001 0.833313C3.96584 0.833313 1.50001 3.29915 1.50001 6.33331C1.50001 10.4583 7.00001 16.4166 7.00001 16.4166C7.00001 16.4166 12.5 10.4583 12.5 6.33331ZM5.16668 6.33331C5.16668 5.32498 5.99168 4.49998 7.00001 4.49998C8.00834 4.49998 8.83334 5.32498 8.83334 6.33331C8.83334 7.34165 8.01751 8.16665 7.00001 8.16665C5.99168 8.16665 5.16668 7.34165 5.16668 6.33331ZM0.583344 17.3333V19.1666H13.4167V17.3333H0.583344Z" fill="#565656"/>
</svg>
