<svg width="32" height="32" viewBox="0 0 32 32" fill="none" xmlns="http://www.w3.org/2000/svg">
<path d="M17.875 32H14.125C13.6658 32 13.2743 31.6674 13.1999 31.2143L12.6234 27.7021C11.7513 27.4508 10.911 27.1019 10.1134 26.6601L7.26406 28.6952C6.89112 28.9616 6.38031 28.9193 6.05625 28.5952L3.40469 25.9438C3.08062 25.6197 3.03837 25.1089 3.30469 24.7359L5.33988 21.8866C4.89806 21.089 4.54919 20.2487 4.29781 19.3766L0.785688 18.8002C0.332563 18.7257 0 18.3342 0 17.875V14.125C0 13.6658 0.332563 13.2743 0.785688 13.1999L4.29781 12.6234C4.54919 11.7514 4.89806 10.9111 5.33988 10.1135L3.30469 7.26412C3.03831 6.89119 3.08062 6.38037 3.40469 6.05631L6.05625 3.40469C6.38031 3.08062 6.89112 3.03837 7.26406 3.30469L10.1134 5.33988C10.911 4.89806 11.7513 4.54919 12.6234 4.29781L13.1999 0.785625C13.2743 0.332562 13.6658 0 14.125 0H17.875C18.3342 0 18.7257 0.332563 18.8001 0.785688L19.3766 4.29781C20.2487 4.54919 21.089 4.89806 21.8866 5.33988L24.7359 3.30469C25.1088 3.03831 25.6197 3.08056 25.9438 3.40469L28.5953 6.05625C28.9194 6.38031 28.9616 6.89112 28.6953 7.26406L26.6601 10.1134C27.1019 10.9111 27.4508 11.7514 27.7022 12.6234L31.2143 13.1998C31.6674 13.2743 32 13.6658 32 14.125V17.875C32 18.3342 31.6674 18.7257 31.2143 18.8001L27.7022 19.3766C27.4509 20.2486 27.1019 21.0889 26.6601 21.8865L28.6953 24.7359C28.9617 25.1088 28.9194 25.6196 28.5953 25.9437L25.9438 28.5953C25.6196 28.9194 25.1089 28.9616 24.7359 28.6953L21.8866 26.6601C21.089 27.1019 20.2486 27.4508 19.3766 27.7022L18.8001 31.2143C18.7257 31.6674 18.3342 32 17.875 32ZM31.0625 17.875H31.0631H31.0625Z" fill="url(#paint0_linear)"/>
<path d="M16 22.5625C12.3814 22.5625 9.4375 19.6186 9.4375 16C9.4375 12.3814 12.3814 9.4375 16 9.4375C19.6186 9.4375 22.5625 12.3814 22.5625 16C22.5625 19.6186 19.6186 22.5625 16 22.5625Z" fill="url(#paint1_linear)"/>
<defs>
<linearGradient id="paint0_linear" x1="16" y1="32" x2="16" y2="0.000141143" gradientUnits="userSpaceOnUse">
<stop stop-color="#00B59C"/>
<stop offset="1" stop-color="#9CFFAC"/>
</linearGradient>
<linearGradient id="paint1_linear" x1="16" y1="22.5625" x2="16" y2="9.43752" gradientUnits="userSpaceOnUse">
<stop stop-color="#C3FFE8"/>
<stop offset="0.9973" stop-color="#F0FFF4"/>
</linearGradient>
</defs>
</svg>
