<svg width="32" height="32" viewBox="0 0 32 32" fill="none" xmlns="http://www.w3.org/2000/svg">
<path d="M19.75 32H12.25C11.7322 32 11.3125 31.5802 11.3125 31.0625V26.3125C11.3125 25.7947 11.7322 25.375 12.25 25.375H19.75C20.2677 25.375 20.6875 25.7947 20.6875 26.3125V31.0625C20.6875 31.5802 20.2677 32 19.75 32Z" fill="url(#paint0_linear)"/>
<path d="M16 0C9.79675 0 4.75 5.04675 4.75 11.25C4.75 15.3501 6.61513 17.4994 8.26069 19.3957C9.83006 21.2043 11.3125 22.9126 11.3125 26.3125V27.25H20.6875V26.3125C20.6875 22.9126 22.1699 21.2043 23.7393 19.3957C25.3849 17.4994 27.25 15.3501 27.25 11.25C27.25 5.04675 22.2033 0 16 0V0Z" fill="url(#paint1_linear)"/>
<path d="M16 15C15.4822 15 15.0625 14.5802 15.0625 14.0625V8.4375C15.0625 7.91975 15.4822 7.5 16 7.5C16.5178 7.5 16.9375 7.91975 16.9375 8.4375V14.0625C16.9375 14.5802 16.5178 15 16 15Z" fill="url(#paint2_linear)"/>
<path d="M16 18.75C16.5178 18.75 16.9375 18.3303 16.9375 17.8125C16.9375 17.2947 16.5178 16.875 16 16.875C15.4822 16.875 15.0625 17.2947 15.0625 17.8125C15.0625 18.3303 15.4822 18.75 16 18.75Z" fill="url(#paint3_linear)"/>
<defs>
<linearGradient id="paint0_linear" x1="16" y1="32" x2="16" y2="25.375" gradientUnits="userSpaceOnUse">
<stop stop-color="#FFE59A"/>
<stop offset="1" stop-color="#FFFFD5"/>
</linearGradient>
<linearGradient id="paint1_linear" x1="16" y1="27.25" x2="16" y2="0" gradientUnits="userSpaceOnUse">
<stop stop-color="#FD5900"/>
<stop offset="1" stop-color="#FFDE00"/>
</linearGradient>
<linearGradient id="paint2_linear" x1="16" y1="15" x2="16" y2="7.5" gradientUnits="userSpaceOnUse">
<stop stop-color="#FFE59A"/>
<stop offset="1" stop-color="#FFFFD5"/>
</linearGradient>
<linearGradient id="paint3_linear" x1="16" y1="18.75" x2="16" y2="16.875" gradientUnits="userSpaceOnUse">
<stop stop-color="#FFE59A"/>
<stop offset="1" stop-color="#FFFFD5"/>
</linearGradient>
</defs>
</svg>
