<svg width="24" height="16" viewBox="0 0 24 16" fill="none" xmlns="http://www.w3.org/2000/svg">
<path fill-rule="evenodd" clip-rule="evenodd" d="M0 8.00003C0 7.36885 0.537258 6.85718 1.2 6.85718H22.8C23.4627 6.85718 24 7.36885 24 8.00003C24 8.63122 23.4627 9.14289 22.8 9.14289H1.2C0.537258 9.14289 0 8.63122 0 8.00003Z" fill="#565656"/>
<path fill-rule="evenodd" clip-rule="evenodd" d="M0 1.14286C0 0.511675 0.537258 0 1.2 0H22.8C23.4627 0 24 0.511675 24 1.14286C24 1.77404 23.4627 2.28571 22.8 2.28571H1.2C0.537258 2.28571 0 1.77404 0 1.14286Z" fill="#565656"/>
<path fill-rule="evenodd" clip-rule="evenodd" d="M0 14.8571C0 14.2259 0.537258 13.7142 1.2 13.7142H22.8C23.4627 13.7142 24 14.2259 24 14.8571C24 15.4883 23.4627 15.9999 22.8 15.9999H1.2C0.537258 15.9999 0 15.4883 0 14.8571Z" fill="#565656"/>
</svg>
