<svg width="44" height="56" viewBox="0 0 44 56" fill="none" xmlns="http://www.w3.org/2000/svg">
<g clip-path="url(#clip0)">
<path d="M10.8044 40.0836C10.7631 40.1533 10.7149 40.2091 10.6667 40.2439C10.6185 40.2788 10.5566 40.2997 10.4809 40.2997C10.4121 40.2997 10.3433 40.2788 10.2607 40.237C10.185 40.1951 10.0955 40.1464 9.99919 40.0906C9.90284 40.0349 9.78585 39.9861 9.66198 39.9443C9.53811 39.9025 9.39359 39.8816 9.22843 39.8816C8.94628 39.8816 8.73982 39.9443 8.60219 40.0627C8.46455 40.1812 8.39574 40.3485 8.39574 40.5505C8.39574 40.683 8.43703 40.7875 8.51961 40.8781C8.60219 40.9617 8.7123 41.0383 8.84305 41.1011C8.9738 41.1638 9.13208 41.2195 9.30413 41.2753C9.47617 41.331 9.64822 41.3868 9.82714 41.4495C10.0061 41.5122 10.185 41.5889 10.3502 41.6725C10.5222 41.7561 10.6736 41.8676 10.8112 42C10.942 42.1324 11.0521 42.2997 11.1347 42.4878C11.2173 42.683 11.2586 42.9129 11.2586 43.1847C11.2586 43.4843 11.2104 43.7631 11.1072 44.0279C11.0039 44.2927 10.8525 44.5157 10.6598 44.7108C10.4671 44.9059 10.2263 45.0593 9.93725 45.1708C9.64822 45.2823 9.32477 45.338 8.96004 45.338C8.76047 45.338 8.55402 45.3171 8.34756 45.2753C8.14111 45.2335 7.94154 45.1777 7.74885 45.1011C7.55616 45.0244 7.37035 44.9338 7.20519 44.8293C7.03314 44.7248 6.88863 44.6063 6.75787 44.4809L7.19831 43.777C7.23272 43.7282 7.28089 43.6864 7.33594 43.6516C7.391 43.6168 7.45293 43.6028 7.52175 43.6028C7.61121 43.6028 7.70068 43.6307 7.79014 43.6864C7.8796 43.7422 7.98283 43.8049 8.09294 43.8746C8.20305 43.9443 8.3338 44.007 8.4852 44.0627C8.62972 44.1185 8.80176 44.1464 9.00821 44.1464C9.2766 44.1464 9.48994 44.0836 9.64134 43.9652C9.79274 43.8467 9.86843 43.6516 9.86843 43.3938C9.86843 43.2404 9.82714 43.122 9.74456 43.0244C9.66198 42.9269 9.55187 42.8502 9.42112 42.7875C9.29037 42.7248 9.13897 42.669 8.96692 42.6202C8.79488 42.5715 8.62283 42.5227 8.44391 42.46C8.26498 42.4042 8.09294 42.3276 7.92089 42.2439C7.74885 42.1603 7.59745 42.0488 7.4667 41.9094C7.33594 41.7701 7.22583 41.5958 7.14325 41.3938C7.06067 41.1847 7.01938 40.9338 7.01938 40.6272C7.01938 40.3833 7.06755 40.1464 7.1639 39.9164C7.26024 39.6864 7.40476 39.4774 7.59057 39.2962C7.77638 39.115 8.01036 38.9687 8.27875 38.8641C8.55402 38.7526 8.8637 38.7039 9.21467 38.7039C9.41424 38.7039 9.60005 38.7178 9.79274 38.7526C9.97854 38.7805 10.1575 38.8293 10.3226 38.892C10.4878 38.9547 10.6461 39.0244 10.7906 39.108C10.9351 39.1917 11.0659 39.2892 11.1829 39.3938L10.8044 40.0836Z" fill="#FF9100"/>
<path d="M14.0801 40.5645C14.4242 40.5645 14.7407 40.6202 15.0298 40.7317C15.3119 40.8432 15.5597 40.9965 15.7661 41.2056C15.9726 41.4077 16.1309 41.6585 16.241 41.9512C16.3511 42.2439 16.413 42.5714 16.413 42.9408C16.413 43.3101 16.358 43.6446 16.241 43.9373C16.1309 44.23 15.9726 44.4878 15.7661 44.6899C15.5597 44.8989 15.3188 45.0523 15.0298 45.1638C14.7476 45.2753 14.4311 45.331 14.0801 45.331C13.7291 45.331 13.4125 45.2753 13.1235 45.1638C12.8345 45.0523 12.5936 44.892 12.3803 44.6899C12.1738 44.4808 12.0155 44.23 11.8985 43.9373C11.7884 43.6446 11.7265 43.3101 11.7265 42.9408C11.7265 42.5784 11.7816 42.2439 11.8985 41.9512C12.0087 41.6585 12.1738 41.4077 12.3803 41.2056C12.5867 41.0035 12.8345 40.8432 13.1235 40.7317C13.4125 40.6202 13.736 40.5645 14.0801 40.5645ZM14.0801 44.3066C14.3966 44.3066 14.6237 44.1951 14.7751 43.9721C14.9265 43.7491 14.9954 43.4077 14.9954 42.9477C14.9954 42.4878 14.9197 42.1463 14.7751 41.9233C14.6237 41.7003 14.3966 41.5888 14.0801 41.5888C13.7566 41.5888 13.5227 41.7003 13.3713 41.9233C13.2199 42.1463 13.1442 42.4878 13.1442 42.9477C13.1442 43.4077 13.2199 43.7491 13.3713 43.9721C13.5227 44.1951 13.7566 44.3066 14.0801 44.3066Z" fill="#FF9100"/>
<path d="M21.6639 41.5958V43.8955C21.6639 44 21.6914 44.0906 21.7396 44.1603C21.7877 44.23 21.8634 44.2648 21.9598 44.2648C22.0079 44.2648 22.0492 44.2578 22.0836 44.2509C22.1181 44.2439 22.1456 44.23 22.1731 44.216C22.2006 44.2021 22.2213 44.1882 22.2419 44.1812C22.2626 44.1742 22.2901 44.1672 22.3176 44.1672C22.3589 44.1672 22.3933 44.1742 22.414 44.1951C22.4415 44.216 22.4621 44.2439 22.4897 44.2857L22.9026 44.9408C22.7236 45.0732 22.531 45.1777 22.3107 45.2404C22.0905 45.3031 21.8634 45.338 21.6294 45.338C21.4092 45.338 21.2234 45.3031 21.0514 45.2404C20.8862 45.1777 20.7486 45.0871 20.6316 44.9686C20.5215 44.8502 20.432 44.7108 20.377 44.5436C20.315 44.3763 20.2875 44.1882 20.2875 43.9861V41.5958H18.6703V45.2683H17.3077V41.5958L17.0049 41.5331C16.9017 41.5122 16.8191 41.4704 16.7572 41.4216C16.6952 41.3728 16.6608 41.2962 16.6608 41.1986V40.6551H17.3008V40.3902C17.3008 40.1254 17.3421 39.8885 17.4247 39.6725C17.5073 39.4564 17.6312 39.2753 17.7826 39.122C17.9408 38.9686 18.1335 38.8502 18.3606 38.7665C18.5877 38.6829 18.8423 38.6411 19.1314 38.6411C19.2415 38.6411 19.3447 38.6481 19.4411 38.662C19.5374 38.676 19.6337 38.6969 19.737 38.7247L19.7094 39.4007C19.7094 39.4495 19.6957 39.4843 19.675 39.5192C19.6544 39.547 19.6269 39.5749 19.5925 39.5958C19.558 39.6167 19.5236 39.6307 19.4823 39.6376C19.4411 39.6446 19.4066 39.6516 19.3654 39.6516C19.2415 39.6516 19.1383 39.6655 19.0419 39.6864C18.9456 39.7073 18.8699 39.7561 18.8079 39.8118C18.746 39.8746 18.6978 39.9512 18.6634 40.0557C18.629 40.1533 18.6152 40.2787 18.6152 40.4321V40.6481H20.3632L20.6385 39.5122C20.6729 39.3728 20.7761 39.2962 20.9413 39.2962H21.657V40.6481H22.7856V41.5958H21.6639Z" fill="#FF9100"/>
<path d="M26.1576 44.0696C26.3572 44.0696 26.5361 44.0348 26.6944 43.9721C26.8526 43.9093 26.9834 43.8118 27.0935 43.6863C27.2036 43.5609 27.2862 43.4076 27.3412 43.2264C27.3963 43.0452 27.4238 42.8431 27.4238 42.6132V38.7665H28.9103V42.6132C28.9103 43.0104 28.8484 43.3797 28.7176 43.7072C28.5869 44.0417 28.4079 44.3275 28.1671 44.5714C27.9262 44.8153 27.6372 44.9964 27.3 45.1358C26.9559 45.2682 26.5774 45.3379 26.1507 45.3379C25.724 45.3379 25.3387 45.2682 24.9946 45.1358C24.6505 45.0034 24.3614 44.8153 24.1275 44.5714C23.8935 44.3275 23.7077 44.0417 23.5838 43.7072C23.4599 43.3728 23.3911 43.0104 23.3911 42.6132V38.7665H24.8776V42.6132C24.8776 42.8431 24.9051 43.0452 24.9602 43.2264C25.0152 43.4076 25.0978 43.5609 25.2079 43.6863C25.318 43.8118 25.4488 43.9093 25.607 43.979C25.7791 44.0417 25.958 44.0696 26.1576 44.0696Z" fill="#FF9100"/>
<path d="M31.023 41.1359C31.1125 41.0523 31.2019 40.9756 31.2983 40.9059C31.3946 40.8362 31.491 40.7735 31.6011 40.7247C31.7112 40.676 31.8213 40.6341 31.9521 40.6063C32.0759 40.5784 32.2136 40.5645 32.3581 40.5645C32.6058 40.5645 32.826 40.6063 33.0187 40.6969C33.2114 40.7875 33.3766 40.9059 33.5073 41.0592C33.6381 41.2125 33.7413 41.4007 33.8101 41.6167C33.879 41.8327 33.9134 42.0697 33.9134 42.3206V45.2613H32.5508V42.3206C32.5508 42.0976 32.5026 41.9164 32.3994 41.7909C32.2961 41.6655 32.1448 41.6028 31.9452 41.6028C31.7938 41.6028 31.6561 41.6376 31.5254 41.7003C31.3946 41.7631 31.2708 41.8537 31.1469 41.9582V45.2613H29.7843V40.6341H30.6308C30.8028 40.6341 30.9129 40.7108 30.968 40.8641L31.023 41.1359Z" fill="#FF9100"/>
<path d="M36.322 39.3728C36.322 39.4843 36.3013 39.5888 36.2531 39.6794C36.2119 39.777 36.1499 39.8606 36.0742 39.9303C35.9985 40 35.9091 40.0627 35.8058 40.1045C35.7026 40.1463 35.5994 40.1672 35.4824 40.1672C35.3723 40.1672 35.269 40.1463 35.1727 40.1045C35.0763 40.0627 34.9869 40 34.9181 39.9303C34.8424 39.8606 34.7873 39.77 34.7391 39.6794C34.6909 39.5888 34.6772 39.4773 34.6772 39.3728C34.6772 39.2613 34.6978 39.1568 34.7391 39.0592C34.7804 38.9617 34.8424 38.878 34.9181 38.8014C34.9938 38.7247 35.0763 38.669 35.1727 38.6272C35.269 38.5854 35.3723 38.5645 35.4824 38.5645C35.5994 38.5645 35.7026 38.5854 35.8058 38.6272C35.9091 38.669 35.9985 38.7247 36.0742 38.8014C36.1499 38.878 36.2119 38.9617 36.2531 39.0592C36.3013 39.1568 36.322 39.2613 36.322 39.3728ZM36.1843 40.6411V45.2683H34.8217V40.6411H36.1843Z" fill="#FF9100"/>
<path d="M14.9885 49.4634H15.2293C15.4496 49.4634 15.6078 49.3937 15.7042 49.2543L17.1494 47.1289C17.2319 47.0174 17.3283 46.9407 17.4246 46.8919C17.521 46.8501 17.6448 46.8292 17.7894 46.8292H19.0831L17.1838 49.4564C17.0461 49.6376 16.9016 49.77 16.7502 49.8466C16.8603 49.8885 16.9635 49.9442 17.053 50.0209C17.1425 50.0975 17.2319 50.1951 17.3076 50.3135L19.2483 53.331H17.9132C17.8306 53.331 17.755 53.324 17.693 53.3101C17.6311 53.2961 17.5829 53.2822 17.5347 53.2543C17.4934 53.2334 17.4522 53.1986 17.4177 53.1707C17.3833 53.1358 17.3558 53.094 17.3283 53.0522L15.8762 50.7944C15.8212 50.7108 15.7592 50.655 15.6767 50.6202C15.5941 50.5853 15.484 50.5714 15.3463 50.5714H14.9885V53.3379H13.502V46.8432H14.9885V49.4634Z" fill="#FF9100"/>
<path d="M21.0995 47.4425C21.0995 47.554 21.0789 47.6585 21.0307 47.7491C20.9894 47.8467 20.9275 47.9303 20.8518 48C20.7761 48.0697 20.6866 48.1324 20.5834 48.1742C20.4802 48.216 20.3769 48.2369 20.2599 48.2369C20.1498 48.2369 20.0466 48.216 19.9503 48.1742C19.8539 48.1324 19.7645 48.0697 19.6956 48C19.6199 47.9303 19.5649 47.8397 19.5167 47.7491C19.4754 47.6516 19.4548 47.547 19.4548 47.4425C19.4548 47.331 19.4754 47.2265 19.5167 47.1289C19.558 47.0314 19.6199 46.9477 19.6956 46.8711C19.7713 46.7944 19.8539 46.7387 19.9503 46.6969C20.0466 46.6551 20.1498 46.6342 20.2599 46.6342C20.3769 46.6342 20.4802 46.6551 20.5834 46.6969C20.6866 46.7387 20.7761 46.7944 20.8518 46.8711C20.9275 46.9477 20.9894 47.0314 21.0307 47.1289C21.0789 47.2195 21.0995 47.324 21.0995 47.4425ZM20.955 48.7038V53.331H19.5924V48.7038H20.955Z" fill="#FF9100"/>
<path d="M26.0475 46.655V53.331H25.2011C25.029 53.331 24.9189 53.2543 24.8639 53.101L24.7606 52.7456C24.6712 52.8432 24.5748 52.9338 24.4716 53.0104C24.3684 53.0871 24.2652 53.1568 24.1482 53.2195C24.0312 53.2752 23.9073 53.324 23.7765 53.3519C23.6458 53.3798 23.5013 53.4007 23.343 53.4007C23.1021 53.4007 22.8819 53.3449 22.6823 53.2404C22.4828 53.1359 22.3038 52.9756 22.1593 52.7735C22.0148 52.5714 21.8978 52.3205 21.8152 52.0279C21.7326 51.7352 21.6913 51.4007 21.6913 51.0244C21.6913 50.6829 21.7395 50.3624 21.829 50.0627C21.9253 49.77 22.0561 49.5122 22.2281 49.2962C22.4002 49.0801 22.6066 48.9129 22.8475 48.7874C23.0884 48.669 23.3567 48.6063 23.6458 48.6063C23.8867 48.6063 24.0862 48.6411 24.2445 48.7108C24.4028 48.7805 24.5542 48.8711 24.6849 48.9895V46.6481L26.0475 46.655ZM24.6849 49.9442C24.5817 49.8258 24.4716 49.7491 24.3477 49.7003C24.2239 49.6516 24.1 49.6306 23.9692 49.6306C23.8454 49.6306 23.7284 49.6585 23.6183 49.7073C23.515 49.7561 23.4187 49.8397 23.343 49.9512C23.2673 50.0627 23.2053 50.209 23.1572 50.3833C23.1159 50.5644 23.0884 50.7805 23.0884 51.0313C23.0884 51.2752 23.109 51.4773 23.1434 51.6446C23.1778 51.8118 23.226 51.9442 23.2879 52.0488C23.3499 52.1533 23.4256 52.223 23.515 52.2718C23.6045 52.3136 23.7008 52.3414 23.811 52.3414C23.9073 52.3414 24.0036 52.3345 24.0793 52.3136C24.1619 52.2927 24.2376 52.2648 24.2996 52.2299C24.3684 52.1951 24.4303 52.1463 24.4923 52.0906C24.5542 52.0348 24.6092 51.9721 24.6712 51.9024V49.9442H24.6849Z" fill="#FF9100"/>
<path d="M29.8738 49.7212C29.8394 49.777 29.7981 49.8188 29.7637 49.8397C29.7224 49.8606 29.6742 49.8745 29.6123 49.8745C29.5504 49.8745 29.4815 49.8606 29.4196 49.8327C29.3577 49.8048 29.282 49.777 29.2132 49.7421C29.1443 49.7073 29.0549 49.6794 28.9585 49.6515C28.8622 49.6236 28.759 49.6097 28.6351 49.6097C28.463 49.6097 28.3323 49.6446 28.2359 49.7073C28.1465 49.777 28.0983 49.8675 28.0983 49.986C28.0983 50.0696 28.1258 50.1463 28.1878 50.202C28.2497 50.2578 28.3254 50.3066 28.4286 50.3484C28.5319 50.3902 28.642 50.432 28.7658 50.4738C28.8897 50.5156 29.0205 50.5574 29.1512 50.6062C29.282 50.655 29.4127 50.7108 29.5366 50.7735C29.6605 50.8362 29.7775 50.9128 29.8738 51.0104C29.977 51.101 30.0527 51.2195 30.1147 51.3519C30.1766 51.4843 30.2041 51.6446 30.2041 51.8327C30.2041 52.0627 30.1629 52.2717 30.0803 52.4669C29.9977 52.662 29.8738 52.8292 29.7155 52.9686C29.5572 53.108 29.3508 53.2195 29.1099 53.2961C28.8691 53.3728 28.5938 53.4146 28.2841 53.4146C28.1258 53.4146 27.9744 53.4007 27.8161 53.3728C27.6579 53.3449 27.5133 53.3031 27.3619 53.2543C27.2174 53.2055 27.0798 53.1428 26.9559 53.0731C26.832 53.0034 26.7288 52.9268 26.6393 52.8501L26.9559 52.3414C26.9903 52.2787 27.0385 52.2369 27.0935 52.202C27.1486 52.1672 27.2174 52.1533 27.3 52.1533C27.3826 52.1533 27.4514 52.1742 27.5133 52.209C27.5753 52.2439 27.6441 52.2857 27.7198 52.3275C27.7955 52.3693 27.8781 52.4111 27.9744 52.4459C28.0708 52.4808 28.1946 52.5017 28.346 52.5017C28.4493 52.5017 28.5387 52.4878 28.6144 52.4669C28.6901 52.4459 28.7452 52.4111 28.7934 52.3763C28.8347 52.3344 28.8691 52.2926 28.8897 52.2439C28.9104 52.1951 28.9172 52.1463 28.9172 52.0975C28.9172 52.0069 28.8897 51.9303 28.8278 51.8675C28.7658 51.8048 28.6833 51.7561 28.5869 51.7142C28.4837 51.6724 28.3736 51.6306 28.2428 51.5958C28.1121 51.5609 27.9882 51.5191 27.8506 51.4703C27.7129 51.4216 27.589 51.3658 27.4583 51.2961C27.3275 51.2264 27.2174 51.1428 27.1142 51.0453C27.011 50.9477 26.9353 50.8153 26.8733 50.6689C26.8114 50.5226 26.7839 50.3414 26.7839 50.1324C26.7839 49.9372 26.8183 49.7491 26.894 49.5749C26.9697 49.4007 27.0798 49.2404 27.2312 49.108C27.3826 48.9756 27.5684 48.871 27.7955 48.7874C28.0226 48.7108 28.2841 48.6689 28.5869 48.6689C28.7521 48.6689 28.9104 48.6829 29.0618 48.7108C29.2132 48.7386 29.3577 48.7804 29.4953 48.8362C29.633 48.8919 29.7568 48.9547 29.8669 49.0243C29.977 49.094 30.0803 49.1777 30.1629 49.2613L29.8738 49.7212Z" fill="#FF9100"/>
<path d="M15.6147 6.78748C15.9175 6.98957 15.9175 7.31013 15.6078 7.50525L15.6009 7.51222C15.1949 7.77703 14.665 7.93731 14.0731 7.98609C13.6878 8.01396 13.3093 8.13243 12.9789 8.34149C12.6073 8.57842 12.4077 8.89898 12.4146 9.23347C12.4215 9.56797 12.6348 9.88156 13.0133 10.1185C13.7359 10.5575 14.9058 10.5575 15.6284 10.1185C15.9519 9.9164 16.1583 9.66553 16.2134 9.37981C16.2891 9.00351 16.5437 8.66205 16.9428 8.40421L16.9635 8.39027C17.2732 8.18818 17.7686 8.18818 18.0714 8.39027L21.5743 10.676L24.3132 8.90595C23.5906 8.82232 22.9231 8.58539 22.4138 8.23696C21.1545 7.37285 21.1614 6.01396 22.4207 5.14289C23.0745 4.68992 23.9554 4.43905 24.905 4.42512C25.8547 4.41118 26.7494 4.64811 27.4169 5.08714C27.9261 5.41466 28.2496 5.82581 28.3735 6.28574L31.2225 4.62721L23.5287 0.4739C22.3519 -0.160245 20.948 -0.160245 19.7712 0.4739L12.0637 4.62024L15.6147 6.78748Z" fill="#41BEAD"/>
<path d="M23.508 22.5156L31.2431 18.5156L27.5545 16.0557C27.2517 15.8606 27.2517 15.5331 27.5614 15.3379L27.5752 15.331C27.9812 15.0662 28.5042 14.9059 29.096 14.8571C29.5089 14.8223 29.8874 14.7038 30.1902 14.5087C30.5619 14.2717 30.7614 13.9512 30.7545 13.6167C30.7477 13.2822 30.5343 12.9686 30.1558 12.7386C29.4401 12.2996 28.2702 12.2996 27.5476 12.7386C27.2242 12.9407 27.0246 13.1916 26.9627 13.4773C26.887 13.8536 26.6324 14.1881 26.2401 14.4459L26.2195 14.4599C25.9098 14.655 25.4143 14.655 25.1115 14.4599L21.6224 12.1881L18.8904 13.9512C19.6129 14.0348 20.2805 14.2717 20.7897 14.6202C22.0422 15.4843 22.0422 16.8362 20.7829 17.7003C20.1291 18.1463 19.2551 18.4041 18.3054 18.4111C17.3557 18.4181 16.468 18.1881 15.8004 17.756C15.2981 17.4285 14.9678 17.0174 14.8439 16.5644L11.8916 18.4668L19.8951 22.5156C21.0306 23.101 22.3725 23.101 23.508 22.5156Z" fill="#41BEAD"/>
<path d="M42.5775 10.8223L37.7534 8.22297C37.6983 8.18813 37.6364 8.15329 37.5813 8.12541L32.4682 5.3728L28.7245 7.5958C28.4148 7.79092 27.9193 7.79092 27.6165 7.5958L27.6028 7.58883C27.2036 7.32402 26.949 6.98953 26.8733 6.60625C26.8182 6.33447 26.6324 6.09057 26.3365 5.89545C25.9718 5.65852 25.4832 5.52611 24.967 5.53308C24.4509 5.54005 23.9623 5.67942 23.6113 5.92332C22.93 6.39022 22.93 7.1498 23.6044 7.60973C23.9072 7.81879 24.2995 7.9512 24.7399 7.98604C25.3249 8.03482 25.841 8.1951 26.2333 8.45294L26.2539 8.46688C26.5567 8.662 26.5567 8.98952 26.247 9.18464L22.7305 11.4634L25.4419 13.2265C25.5726 12.7596 25.9374 12.3205 26.481 11.993C27.8161 11.1777 29.9013 11.1707 31.2295 11.986C31.9176 12.4042 32.303 12.9756 32.3168 13.5888C32.3305 14.2021 31.9658 14.7805 31.2914 15.2125C30.7821 15.54 30.149 15.7561 29.454 15.8397L32.4338 17.8815L31.2432 18.5156V24.7386L21.7188 29.5261L21.7051 29.5191L21.6913 29.5261L12.1669 24.7386L11.8917 18.4669L10.6117 17.8327L14.5343 15.331C14.8439 15.1359 15.3394 15.1359 15.6422 15.331L15.656 15.3379C16.0551 15.6028 16.3098 15.9372 16.3855 16.3205C16.4405 16.5853 16.6263 16.8362 16.9222 17.0313C17.287 17.2683 17.7756 17.4007 18.2917 17.3937C18.8078 17.3867 19.2896 17.2474 19.6474 17.0034C20.3287 16.5366 20.3287 15.777 19.6543 15.317C19.3515 15.108 18.9593 14.9756 18.5188 14.9407C17.9407 14.892 17.4246 14.7317 17.0255 14.4738L17.0048 14.4599C16.702 14.2648 16.702 13.9373 17.0117 13.7421L20.5283 11.4704L17.8169 9.70729C17.6861 10.1742 17.3214 10.6062 16.7846 10.9407C15.4495 11.7561 13.3644 11.763 12.0293 10.9477C12.0018 10.9268 11.9743 10.9129 11.9467 10.892C11.3136 10.4808 10.9557 9.93029 10.942 9.34492C10.9282 8.73168 11.293 8.15329 11.9674 7.72123C12.4766 7.39371 13.1097 7.17768 13.8048 7.09406L10.8938 5.41461L0.83266 10.8362C0.0963105 11.2334 0.110074 12.2996 0.846424 12.6829L7.92089 16.3414V27.4285L21.712 34.3623L35.503 27.4285V16.3275L37.5263 15.2822C37.5813 15.2543 37.6295 15.2264 37.6777 15.1986L42.5637 12.6759C43.3001 12.2857 43.3138 11.2195 42.5775 10.8223Z" fill="#41BEAD"/>
</g>
<defs>
<clipPath id="clip0">
<rect width="43.3208" height="56" fill="white"/>
</clipPath>
</defs>
</svg>
