<svg width="352" height="232" viewBox="0 0 352 232" fill="none" xmlns="http://www.w3.org/2000/svg">
<g opacity="0.7">
<path d="M352 144.653C342.639 144.653 335.064 137.495 335.064 128.676L335.084 60.5643V49.6328C335.084 39.3166 329.768 30.9692 323.219 30.9692H321.597C315.049 30.9692 304.312 39.3166 304.312 49.6328H299.796H252.642V115.632H219.756V144.653H352Z" fill="#00927D"/>
<path opacity="0.31" d="M337.651 144.653C329.316 144.653 322.542 137.495 322.563 128.676L322.583 60.5643V49.6328C322.583 39.3166 317.862 30.9692 312.011 30.9692H310.553C304.723 30.9692 295.137 39.3166 295.137 49.6328H291.113H249.092V115.632H219.777V144.653H337.651Z" fill="#93C9C1"/>
<path d="M324.492 30.9692H215.836C207.029 30.9692 199.885 39.3166 199.885 49.6328V50.5557H199.844V83.5759V196.193C199.844 206.509 195.861 214.857 188.594 214.857H297.703C304.949 214.857 310.841 206.509 310.841 196.193V83.5554V50.5352V49.6123C310.82 39.3166 315.665 30.9692 324.492 30.9692Z" fill="#E9F5F3"/>
<path opacity="0.59" d="M311.58 31.2974H202.923C194.116 31.2974 186.972 39.6447 186.972 49.9609V50.8839H186.931V83.904V196.521C186.931 206.837 182.949 215.185 175.682 215.185H284.79C292.037 215.185 297.928 206.837 297.928 196.521V83.904V50.8839V49.9609C297.908 39.6447 302.773 31.2974 311.58 31.2974Z" fill="#DEDEDE"/>
<path d="M291.339 196.173V192.419H291.359V29.5951V18.6636C291.359 8.34733 284.749 0 276.599 0H274.567C266.417 0 253.033 8.34733 253.033 18.6636H247.408H188.676V84.6629H147.722V196.173C147.722 206.489 156.98 214.836 168.374 214.836H306.632C295.239 214.836 291.339 206.489 291.339 196.173Z" fill="#00927D"/>
<path opacity="0.31" d="M274.752 196.173V192.419H274.772V29.5951V18.6636C274.772 8.34733 268.183 0 260.053 0H258.042C249.912 0 236.569 8.34733 236.569 18.6636H230.965H188.532V84.6629H147.722V196.173C147.722 206.489 156.939 214.836 168.312 214.836H290.004C278.611 214.836 274.752 206.489 274.752 196.173Z" fill="#93C9C1"/>
<path d="M311.642 43.7261H93.6918C90.6536 43.7261 88.1902 46.1257 88.1697 49.0995L87.328 211.288C87.3075 214.241 89.7709 216.661 92.8091 216.661H310.759C313.797 216.661 316.261 214.262 316.281 211.288L317.123 49.0995C317.143 46.1257 314.68 43.7261 311.642 43.7261Z" fill="#D6D6D6"/>
<path d="M304.128 43.2749H90.7356C87.759 43.2749 85.3366 45.6745 85.3366 48.6484L84.7618 211.268C84.7413 214.241 87.1431 216.641 90.1198 216.641H303.512C306.489 216.641 308.911 214.241 308.911 211.268L309.486 48.6484C309.486 45.695 307.084 43.2749 304.128 43.2749Z" fill="#242424"/>
<path d="M297.826 57.0983H96.9352L96.422 202.838H297.292L297.826 57.0983Z" fill="#333838"/>
<path opacity="0.46" d="M199.187 49.8995C199.187 51.0685 198.386 52.0324 197.38 52.0324C196.395 52.0324 195.594 51.089 195.594 49.8995C195.594 48.7304 196.395 47.7665 197.401 47.7665C198.407 47.787 199.207 48.7304 199.187 49.8995Z" fill="#808080"/>
<path opacity="0.43" d="M276.066 193.24H139.921C137.499 193.24 135.549 191.291 135.549 188.871V48.5048H280.438V188.871C280.438 191.291 278.488 193.24 276.066 193.24Z" fill="#242424"/>
<path d="M120.645 178.288L256.851 178.268C258.904 178.268 260.546 176.689 260.546 174.72V130.46V66.43V18.6636C260.546 8.34733 266.828 0 278.242 0H137.561C126.147 0 116.909 8.34733 116.909 18.6636V66.43V130.46V174.74C116.909 176.709 118.592 178.288 120.645 178.288Z" fill="white"/>
<path d="M104.715 230.998C104.038 230.998 103.504 230.259 103.504 229.357V217.625C103.504 216.723 104.038 215.985 104.715 215.985H306.201C306.879 215.985 307.412 216.723 307.412 217.625V229.357C307.412 230.259 306.879 230.998 306.201 230.998H104.715Z" fill="#D4D4D4"/>
<path d="M104.715 230.998C104.038 230.998 103.504 230.259 103.504 229.357V217.625C103.504 216.723 104.038 215.985 104.715 215.985H306.201C306.879 215.985 307.412 216.723 307.412 217.625V229.357C307.412 230.259 306.879 230.998 306.201 230.998H104.715Z" fill="#CCCCCC"/>
<g opacity="0.72">
<path opacity="0.72" d="M104.715 231.121C104.038 231.121 103.504 230.998 103.504 230.834V228.762C103.504 228.598 104.038 228.475 104.715 228.475H306.201C306.879 228.475 307.412 228.598 307.412 228.762V230.834C307.412 230.998 306.879 231.121 306.201 231.121H104.715Z" fill="#D4D4D4"/>
</g>
<path d="M1.21117 230.998C0.533738 230.998 0 230.259 0 229.357V217.625C0 216.723 0.533738 215.985 1.21117 215.985H202.697C203.375 215.985 203.908 216.723 203.908 217.625V229.357C203.908 230.259 203.375 230.998 202.697 230.998H1.21117Z" fill="#EFF9F8"/>
<path d="M202.615 230.998H1.62182C0.821215 230.998 0.164307 230.341 0.164307 229.541V229.336C0.164307 229.008 0.431176 228.742 0.75963 228.742H202.595C202.923 228.742 203.19 229.008 203.19 229.336V230.382C203.211 230.731 202.944 230.998 202.615 230.998Z" fill="#C9C9C9"/>
<path d="M88.5799 223.942C86.9376 223.942 85.6033 222.138 85.6033 219.923V216.005H118.284V219.923C118.284 222.138 116.95 223.942 115.308 223.942H88.5799Z" fill="#C2C2C2"/>
<path d="M115.739 220.866H88.1489C86.9378 220.866 85.9524 219.533 85.9524 217.913V216.005H117.936V217.913C117.936 219.553 116.95 220.866 115.739 220.866Z" fill="#E0E0E0"/>
<path d="M220.967 143.873H173.197C172.15 143.873 171.308 143.033 171.308 141.987C171.308 140.941 172.15 140.1 173.197 140.1H220.967C222.014 140.1 222.855 140.941 222.855 141.987C222.855 143.033 222.014 143.873 220.967 143.873Z" fill="#B0E3DC"/>
<path d="M240.099 133.537H173.197C172.15 133.537 171.308 132.696 171.308 131.65C171.308 130.604 172.15 129.763 173.197 129.763H240.099C241.146 129.763 241.988 130.604 241.988 131.65C241.988 132.675 241.146 133.537 240.099 133.537Z" fill="#B0E3DC"/>
<path d="M163.508 154.497H134.111V125.148H163.488V154.497H163.508ZM137.642 150.97H159.957V128.676H137.642V150.97Z" fill="#A3BBC4"/>
<path d="M148.05 146.478L140.783 140.613L143.493 137.7L147.64 141.064L154.948 133.147L158.047 135.649L148.05 146.478Z" fill="#C3D82E"/>
<path d="M163.508 154.497H134.111V125.148H163.488V154.497H163.508ZM137.642 150.97H159.957V128.676H137.642V150.97Z" fill="#B0E3DC"/>
<path d="M148.05 146.478L140.783 140.613L143.493 137.7L147.64 141.064L154.948 133.147L158.047 135.649L148.05 146.478Z" fill="#41BEAD"/>
<path d="M240.099 90.0567H173.197C172.15 90.0567 171.308 89.2158 171.308 88.1698C171.308 87.1239 172.15 86.283 173.197 86.283H240.099C241.146 86.283 241.988 87.1239 241.988 88.1698C241.988 89.2158 241.146 90.0567 240.099 90.0567Z" fill="#B0E3DC"/>
<path d="M240.099 100.393H173.197C172.15 100.393 171.308 99.5526 171.308 98.5066C171.308 97.4606 172.15 96.6198 173.197 96.6198H240.099C241.146 96.6198 241.988 97.4606 241.988 98.5066C241.988 99.5526 241.146 100.393 240.099 100.393Z" fill="#B0E3DC"/>
<path d="M214.664 110.751H173.197C172.15 110.751 171.308 109.91 171.308 108.864C171.308 107.818 172.15 106.977 173.197 106.977H214.664C215.711 106.977 216.553 107.818 216.553 108.864C216.553 109.889 215.711 110.751 214.664 110.751Z" fill="#B0E3DC"/>
<path d="M163.508 113.561H134.111V84.2117H163.488V113.561H163.508ZM137.642 110.033H159.957V87.7393H137.642V110.033Z" fill="#A3BBC4"/>
<path d="M163.508 113.561H134.111V84.2117H163.488V113.561H163.508ZM137.642 110.033H159.957V87.7393H137.642V110.033Z" fill="#B0E3DC"/>
<path d="M148.05 105.541L140.783 99.6756L143.493 96.7633L147.64 100.127L154.948 92.2102L158.047 94.7124L148.05 105.541Z" fill="#41BEAD"/>
<path d="M240.099 59.3542H173.197C172.15 59.3542 171.309 58.5133 171.309 57.4673C171.309 56.4213 172.15 55.5804 173.197 55.5804H240.099C241.146 55.5804 241.988 56.4213 241.988 57.4673C241.988 58.5133 241.146 59.3542 240.099 59.3542Z" fill="#B0E3DC"/>
<path d="M240.099 49.0174H173.197C172.15 49.0174 171.309 48.1765 171.309 47.1305C171.309 46.0845 172.15 45.2437 173.197 45.2437H240.099C241.146 45.2437 241.988 46.0845 241.988 47.1305C241.988 48.1765 241.146 49.0174 240.099 49.0174Z" fill="#B0E3DC"/>
<path d="M163.509 72.6854H134.112V43.3364H163.488V72.6854H163.509ZM137.643 69.1578H159.958V46.864H137.643V69.1578Z" fill="#A3BBC4"/>
<path d="M163.509 72.6854H134.112V43.3364H163.488V72.6854H163.509ZM137.643 69.1578H159.958V46.864H137.643V69.1578Z" fill="#B0E3DC"/>
<path d="M148.05 64.6867L140.783 58.821L143.493 55.8882L147.64 59.2517L154.948 51.3556L158.048 53.8577L148.05 64.6867Z" fill="#41BEAD"/>
</g>
</svg>
