<svg width="32" height="32" viewBox="0 0 32 32" fill="none" xmlns="http://www.w3.org/2000/svg">
<g clip-path="url(#clip0)">
<path d="M14.125 18.8746V25.4373L7.56226 27.3124L0.999542 25.4373V18.8746L7.56226 16.9995L14.125 18.8746Z" fill="url(#paint0_linear)"/>
<path d="M13.1874 11.3743H1.93707C1.41199 11.3743 0.999542 11.7868 0.999542 12.3119V18.8746H14.125V12.3119C14.125 11.7868 13.7125 11.3743 13.1874 11.3743ZM24.2184 23.5622L17.875 25.4373V31.0625C17.875 31.5874 18.2875 32 18.8126 32H30.0629C30.588 32 31.0005 31.5874 31.0005 31.0625V25.4373L24.2184 23.5622ZM4.47497 5.34949L6.62473 3.19973V8.43672C6.62473 8.95493 7.04405 9.37425 7.56226 9.37425C8.08046 9.37425 8.49979 8.95493 8.49979 8.43672V3.19973L10.6495 5.34949C10.8327 5.53262 11.0726 5.62419 11.3124 5.62419C11.5522 5.62419 11.7921 5.53262 11.9752 5.34949C12.3414 4.98329 12.3414 4.38996 11.9752 4.02376L8.22622 0.274761C8.13947 0.187758 8.03553 0.118755 7.92021 0.0710038C7.69108 -0.0237493 7.43338 -0.0237493 7.20425 0.0710038C7.08887 0.118755 6.98499 0.187758 6.89824 0.274761L3.14924 4.02376C2.78304 4.38996 2.78304 4.98329 3.14924 5.34949C3.51544 5.71569 4.10877 5.71569 4.47497 5.34949ZM21.3505 12.9747L23.5003 10.825V16.062C23.5003 16.5802 23.9196 16.9995 24.4378 16.9995C24.956 16.9995 25.3754 16.5802 25.3754 16.062V10.825L27.5251 12.9747C27.7082 13.1579 27.9481 13.2494 28.1879 13.2494C28.4278 13.2494 28.6677 13.1579 28.8508 12.9747C29.217 12.6085 29.217 12.0152 28.8508 11.649L25.1018 7.90008C25.015 7.81308 24.9111 7.74407 24.7958 7.69632C24.5666 7.60157 24.3089 7.60157 24.0798 7.69632C23.9644 7.74407 23.8605 7.81308 23.7738 7.90008L20.0248 11.649C19.6586 12.0152 19.6586 12.6085 20.0248 12.9747C20.391 13.3409 20.9843 13.3409 21.3505 12.9747ZM0.999542 31.0625C0.999542 31.5874 1.41199 32 1.93707 32H13.1874C13.7125 32 14.125 31.5874 14.125 31.0625V25.4373H0.999542V31.0625Z" fill="url(#paint1_linear)"/>
<path d="M31.0006 19.8121V25.4373H17.8751V19.8121C17.8751 19.287 18.2876 18.8746 18.8127 18.8746H30.063C30.5881 18.8746 31.0006 19.2871 31.0006 19.8121Z" fill="url(#paint2_linear)"/>
</g>
<defs>
<linearGradient id="paint0_linear" x1="7.56226" y1="27.3124" x2="7.56226" y2="16.9995" gradientUnits="userSpaceOnUse">
<stop stop-color="#FFBEF9"/>
<stop offset="1" stop-color="#FFF1FF"/>
</linearGradient>
<linearGradient id="paint1_linear" x1="16" y1="32" x2="16" y2="0" gradientUnits="userSpaceOnUse">
<stop stop-color="#A93AFF"/>
<stop offset="1" stop-color="#FF81FF"/>
</linearGradient>
<linearGradient id="paint2_linear" x1="24.4378" y1="25.4373" x2="24.4378" y2="18.8746" gradientUnits="userSpaceOnUse">
<stop stop-color="#FFBEF9"/>
<stop offset="1" stop-color="#FFF1FF"/>
</linearGradient>
<clipPath id="clip0">
<rect width="32" height="32" fill="white"/>
</clipPath>
</defs>
</svg>
