<svg width="28" height="28" viewBox="0 0 28 28" fill="none" xmlns="http://www.w3.org/2000/svg">
<path d="M14.0031 6.82115C10.0303 6.82115 6.82588 10.0263 6.82588 14C6.82588 17.9737 10.0303 21.1788 14.0031 21.1788C17.9759 21.1788 21.1804 17.9737 21.1804 14C21.1804 10.0263 17.9759 6.82115 14.0031 6.82115ZM14.0031 18.6672C11.4358 18.6672 9.33698 16.5741 9.33698 14C9.33698 11.4259 11.4296 9.33281 14.0031 9.33281C16.5767 9.33281 18.6693 11.4259 18.6693 14C18.6693 16.5741 16.5704 18.6672 14.0031 18.6672ZM23.148 6.5275C23.148 7.45844 22.3984 8.20194 21.474 8.20194C20.5432 8.20194 19.7999 7.45219 19.7999 6.5275C19.7999 5.60281 20.5495 4.85306 21.474 4.85306C22.3984 4.85306 23.148 5.60281 23.148 6.5275ZM27.9016 8.22693C27.7954 5.98393 27.2832 3.9971 25.6404 2.36015C24.0038 0.723195 22.0174 0.210867 19.7749 0.0984045C17.4637 -0.0328015 10.5363 -0.0328015 8.2251 0.0984045C5.98885 0.204619 4.00245 0.716947 2.35962 2.3539C0.716788 3.99085 0.21082 5.97769 0.0983826 8.22069C-0.0327942 10.5324 -0.0327942 17.4613 0.0983826 19.7731C0.204573 22.0161 0.716788 24.0029 2.35962 25.6399C4.00245 27.2768 5.9826 27.7891 8.2251 27.9016C10.5363 28.0328 17.4637 28.0328 19.7749 27.9016C22.0174 27.7954 24.0038 27.2831 25.6404 25.6399C27.277 24.0029 27.7892 22.0161 27.9016 19.7731C28.0328 17.4613 28.0328 10.5387 27.9016 8.22693ZM24.9158 22.2535C24.4286 23.4781 23.4853 24.4215 22.2548 24.9151C20.412 25.6461 16.0395 25.4774 14.0031 25.4774C11.9668 25.4774 7.58795 25.6399 5.75148 24.9151C4.52716 24.4278 3.58394 23.4843 3.09046 22.2535C2.35962 20.4104 2.52828 16.0368 2.52828 14C2.52828 11.9632 2.36587 7.5834 3.09046 5.74651C3.57769 4.52192 4.52091 3.57849 5.75148 3.0849C7.5942 2.3539 11.9668 2.52259 14.0031 2.52259C16.0395 2.52259 20.4183 2.36015 22.2548 3.0849C23.4791 3.57224 24.4223 4.51568 24.9158 5.74651C25.6466 7.58965 25.478 11.9632 25.478 14C25.478 16.0368 25.6466 20.4166 24.9158 22.2535Z" fill="#41BEAD"/>
</svg>
