<svg width="26" height="27" viewBox="0 0 26 27" fill="none" xmlns="http://www.w3.org/2000/svg">
<path d="M5.5 0H1.75C1.23181 0 0.8125 0.419312 0.8125 0.9375V6.625C0.8125 7.14319 1.23181 7.5625 1.75 7.5625H5.5C6.01819 7.5625 6.4375 7.14319 6.4375 6.625V0.9375C6.4375 0.419312 6.01819 0 5.5 0ZM11.125 7.5625H14.875C15.3932 7.5625 15.8125 7.14319 15.8125 6.625V0.9375C15.8125 0.419312 15.3932 0 14.875 0H11.125C10.6068 0 10.1875 0.419312 10.1875 0.9375V6.625C10.1875 7.14319 10.6068 7.5625 11.125 7.5625ZM24.25 0H20.5C19.9818 0 19.5625 0.419312 19.5625 0.9375V6.625C19.5625 7.14319 19.9818 7.5625 20.5 7.5625H24.25C24.7682 7.5625 25.1875 7.14319 25.1875 6.625V0.9375C25.1875 0.419312 24.7682 0 24.25 0ZM8.3125 26.3125H12.0625V22.5625H8.3125V26.3125ZM8.3125 20.6875H12.0625V16.9375H8.3125V20.6875ZM2.6875 25.375C2.6875 25.8999 3.09994 26.3125 3.625 26.3125H6.4375V22.5625H2.6875V25.375ZM2.6875 20.6875H6.4375V16.9375H2.6875V20.6875ZM2.6875 12.25V15.0625H6.4375V11.3125H3.625C3.09994 11.3125 2.6875 11.7249 2.6875 12.25ZM19.5625 26.3125H22.375C22.9001 26.3125 23.3125 25.8999 23.3125 25.375V22.5625H19.5625V26.3125ZM19.5625 20.6875H23.3125V16.9375H19.5625V20.6875ZM22.375 11.3125H19.5625V15.0625H23.3125V12.25C23.3125 11.7249 22.9001 11.3125 22.375 11.3125ZM13.9375 20.6875H17.6875V16.9375H13.9375V20.6875ZM13.9375 26.3125H17.6875V22.5625H13.9375V26.3125ZM8.3125 15.0625H12.0625V11.3125H8.3125V15.0625ZM13.9375 15.0625H17.6875V11.3125H13.9375V15.0625Z" fill="url(#paint0_linear)"/>
<defs>
<linearGradient id="paint0_linear" x1="13" y1="26.3125" x2="13" y2="0" gradientUnits="userSpaceOnUse">
<stop stop-color="#FFE59A"/>
<stop offset="1" stop-color="#FFFFD5"/>
</linearGradient>
</defs>
</svg>
