<svg width="63" height="88" viewBox="0 0 63 88" fill="none" xmlns="http://www.w3.org/2000/svg">
<path d="M21.5 53.0286H24V34.9714H21.5C20.1193 34.9714 19 33.8521 19 32.4714V26.5C19 25.1192 20.1193 24 21.5 24H35.5C36.8808 24 38 25.1192 38 26.5V53.0286H40.5C41.8808 53.0286 43 54.1479 43 55.5286V61.5C43 62.8807 41.8808 64 40.5 64H21.5C20.1193 64 19 62.8807 19 61.5V55.5286C19 54.1479 20.1193 53.0286 21.5 53.0286ZM31 0C26.0294 0 22 4.02938 22 9C22 13.9706 26.0294 18 31 18C35.9706 18 40 13.9706 40 9C40 4.02938 35.9705 0 31 0Z" fill="white"/>
<path d="M7.0084 78.77V86H5.6584V82.84H2.2634V86H0.913399V78.77H2.2634V81.88H5.6584V78.77H7.0084ZM12.4235 83.27L11.5435 80.865C11.5001 80.7583 11.4551 80.6317 11.4085 80.485C11.3618 80.3383 11.3151 80.18 11.2685 80.01C11.2251 80.18 11.1801 80.34 11.1335 80.49C11.0868 80.6367 11.0418 80.765 10.9985 80.875L10.1235 83.27H12.4235ZM14.7985 86H13.7585C13.6418 86 13.5468 85.9717 13.4735 85.915C13.4001 85.855 13.3451 85.7817 13.3085 85.695L12.7685 84.22H9.77348L9.23348 85.695C9.20681 85.7717 9.15514 85.8417 9.07848 85.905C9.00181 85.9683 8.90514 86 8.78848 86H7.74348L10.5835 78.77H11.9585L14.7985 86ZM20.9257 78.77L18.0057 84.995C17.9024 85.2117 17.7924 85.39 17.6757 85.53C17.5591 85.67 17.4324 85.78 17.2957 85.86C17.1624 85.94 17.0174 85.995 16.8607 86.025C16.7074 86.0583 16.5424 86.075 16.3657 86.075C16.1257 86.075 15.9507 86.0533 15.8407 86.01C15.7307 85.9667 15.6757 85.9033 15.6757 85.82V84.98H16.0657C16.1391 84.98 16.2141 84.9733 16.2907 84.96C16.3674 84.9467 16.4424 84.92 16.5157 84.88C16.5924 84.84 16.6657 84.7833 16.7357 84.71C16.8057 84.6367 16.8707 84.54 16.9307 84.42L17.2157 83.84L14.3157 78.77H15.5757C15.6924 78.77 15.7857 78.7983 15.8557 78.855C15.9257 78.9117 15.9841 78.9833 16.0307 79.07L17.4357 81.72C17.5124 81.8667 17.5807 82.0117 17.6407 82.155C17.7041 82.2983 17.7591 82.445 17.8057 82.595C17.8924 82.295 18.0041 82.0033 18.1407 81.72L19.3657 79.07C19.4024 78.9967 19.4574 78.9283 19.5307 78.865C19.6041 78.8017 19.6974 78.77 19.8107 78.77H20.9257ZM26.7861 78.77V86H25.4311V83.105C25.0411 83.2017 24.6661 83.2733 24.3061 83.32C23.9494 83.3667 23.6144 83.3817 23.3011 83.365C22.9911 83.3483 22.7077 83.2967 22.4511 83.21C22.1944 83.12 21.9744 82.9867 21.7911 82.81C21.6111 82.6333 21.4711 82.41 21.3711 82.14C21.2711 81.8667 21.2211 81.5383 21.2211 81.155V78.77H22.5761V81.155C22.5761 81.435 22.6244 81.6683 22.7211 81.855C22.8177 82.0383 22.9761 82.1733 23.1961 82.26C23.4194 82.3467 23.7127 82.3817 24.0761 82.365C24.4427 82.3483 24.8944 82.275 25.4311 82.145V78.77H26.7861ZM34.4889 78.77V86H33.1389V81.47C33.1389 81.3 33.1422 81.1217 33.1489 80.935C33.1589 80.7483 33.1789 80.55 33.2089 80.34C33.1422 80.5267 33.0689 80.7 32.9889 80.86C32.9122 81.0167 32.8372 81.155 32.7639 81.275L29.9989 85.585C29.9689 85.635 29.9322 85.685 29.8889 85.735C29.8489 85.785 29.8039 85.83 29.7539 85.87C29.7039 85.9067 29.6489 85.9383 29.5889 85.965C29.5289 85.9883 29.4672 86 29.4039 86H28.3939V78.77H29.7439V83.3C29.7439 83.47 29.7389 83.65 29.7289 83.84C29.7222 84.0267 29.7039 84.225 29.6739 84.435C29.7405 84.2483 29.8122 84.075 29.8889 83.915C29.9689 83.755 30.0472 83.615 30.1239 83.495L32.8839 79.185C32.9139 79.135 32.9489 79.085 32.9889 79.035C33.0322 78.985 33.0789 78.9417 33.1289 78.905C33.1789 78.865 33.2322 78.8333 33.2889 78.81C33.3489 78.7833 33.4122 78.77 33.4789 78.77H34.4889ZM45.4256 82.385C45.4256 82.915 45.3373 83.4067 45.1606 83.86C44.9873 84.31 44.7406 84.7 44.4206 85.03C44.1006 85.36 43.7156 85.6183 43.2656 85.805C42.8156 85.9883 42.3156 86.08 41.7656 86.08C41.2189 86.08 40.7206 85.9883 40.2706 85.805C39.8206 85.6183 39.4339 85.36 39.1106 85.03C38.7906 84.7 38.5423 84.31 38.3656 83.86C38.1889 83.4067 38.1006 82.915 38.1006 82.385C38.1006 81.855 38.1889 81.365 38.3656 80.915C38.5423 80.4617 38.7906 80.07 39.1106 79.74C39.4339 79.41 39.8206 79.1533 40.2706 78.97C40.7206 78.7833 41.2189 78.69 41.7656 78.69C42.1323 78.69 42.4773 78.7333 42.8006 78.82C43.1239 78.9033 43.4206 79.0233 43.6906 79.18C43.9606 79.3333 44.2023 79.5217 44.4156 79.745C44.6323 79.965 44.8156 80.2117 44.9656 80.485C45.1156 80.7583 45.2289 81.055 45.3056 81.375C45.3856 81.695 45.4256 82.0317 45.4256 82.385ZM44.0506 82.385C44.0506 81.9883 43.9973 81.6333 43.8906 81.32C43.7839 81.0033 43.6323 80.735 43.4356 80.515C43.2389 80.295 42.9989 80.1267 42.7156 80.01C42.4356 79.8933 42.1189 79.835 41.7656 79.835C41.4123 79.835 41.0939 79.8933 40.8106 80.01C40.5306 80.1267 40.2906 80.295 40.0906 80.515C39.8939 80.735 39.7423 81.0033 39.6356 81.32C39.5289 81.6333 39.4756 81.9883 39.4756 82.385C39.4756 82.7817 39.5289 83.1383 39.6356 83.455C39.7423 83.7683 39.8939 84.035 40.0906 84.255C40.2906 84.4717 40.5306 84.6383 40.8106 84.755C41.0939 84.8717 41.4123 84.93 41.7656 84.93C42.1189 84.93 42.4356 84.8717 42.7156 84.755C42.9989 84.6383 43.2389 84.4717 43.4356 84.255C43.6323 84.035 43.7839 83.7683 43.8906 83.455C43.9973 83.1383 44.0506 82.7817 44.0506 82.385ZM56.8818 84.965V87.335C56.8818 87.4517 56.8418 87.545 56.7618 87.615C56.6851 87.685 56.5834 87.72 56.4568 87.72H55.6468V86H46.6068V78.77H47.9568V84.965H50.5468V78.77H51.8968V84.965H54.4968V78.77H55.8468V84.965H56.8818ZM59.2946 79.84V81.845H61.8246V82.88H59.2946V84.925H62.5046V86H57.9446V78.77H62.5046V79.84H59.2946Z" fill="white"/>
</svg>
