<svg width="24" height="64" viewBox="0 0 24 64" fill="none" xmlns="http://www.w3.org/2000/svg">
<path d="M2.5 53.0286H5V34.9714H2.5C1.11925 34.9714 0 33.8521 0 32.4714V26.5C0 25.1192 1.11925 24 2.5 24H16.5C17.8808 24 19 25.1192 19 26.5V53.0286H21.5C22.8808 53.0286 24 54.1479 24 55.5286V61.5C24 62.8807 22.8808 64 21.5 64H2.5C1.11925 64 0 62.8807 0 61.5V55.5286C0 54.1479 1.11925 53.0286 2.5 53.0286ZM12 0C7.02938 0 3 4.02938 3 9C3 13.9706 7.02938 18 12 18C16.9706 18 21 13.9706 21 9C21 4.02938 16.9705 0 12 0Z" fill="white"/>
</svg>
