<svg width="28" height="31" viewBox="0 0 28 31" fill="none" xmlns="http://www.w3.org/2000/svg">
<path d="M11.1875 30.9302C8.60294 30.9302 6.5 28.9024 6.5 26.4102C6.5 26.1057 6.53206 25.802 6.59431 25.5063H1.8125C1.29431 25.5063 0.875 25.1019 0.875 24.6023V18.6343C0.875 18.3112 1.05444 18.0128 1.34469 17.8513C1.634 17.6897 1.99194 17.6889 2.28312 17.8522C2.70606 18.0887 3.19219 18.2141 3.6875 18.2141C5.23837 18.2141 6.5 16.9976 6.5 15.5021C6.5 14.0067 5.23837 12.7902 3.6875 12.7902C3.19219 12.7902 2.70606 12.9155 2.28306 13.1521C1.99281 13.3145 1.63487 13.3137 1.34462 13.153C1.05444 12.9915 0.875 12.6931 0.875 12.3699V6.402C0.875 5.90234 1.29431 5.49802 1.8125 5.49802H6.59431C6.53206 5.20229 6.5 4.89861 6.5 4.59403C6.5 2.10186 8.60294 0.0740967 11.1875 0.0740967C13.7721 0.0740967 15.875 2.10186 15.875 4.59403C15.875 4.89861 15.8429 5.20229 15.7807 5.49802H20.5625C21.0807 5.49802 21.5 5.90234 21.5 6.402V11.0731C21.8067 11.0131 22.1216 10.9822 22.4375 10.9822C25.0221 10.9822 27.125 13.01 27.125 15.5021C27.125 17.9943 25.0221 20.0221 22.4375 20.0221C22.1216 20.0221 21.8067 19.9912 21.5 19.9311V24.6023C21.5 25.1019 21.0807 25.5063 20.5625 25.5063H15.7807C15.8429 25.802 15.875 26.1057 15.875 26.4102C15.875 28.9024 13.7721 30.9302 11.1875 30.9302Z" fill="url(#paint0_linear)"/>
<defs>
<linearGradient id="paint0_linear" x1="14" y1="30.9302" x2="14" y2="0.0740967" gradientUnits="userSpaceOnUse">
<stop stop-color="#FD3A84"/>
<stop offset="1" stop-color="#FFA68D"/>
</linearGradient>
</defs>
</svg>
