<svg width="122" height="42" viewBox="0 0 122 42" fill="none" xmlns="http://www.w3.org/2000/svg">
<path d="M28.7967 27.3511L38.6462 22.3396L33.8274 19.4291C33.442 19.1785 33.4612 18.7931 33.8274 18.5425H33.8467C34.425 18.1955 35.061 18.0028 35.7357 17.9642C36.2175 17.9257 36.6801 17.7908 37.0849 17.5402C37.5475 17.2511 37.7981 16.8656 37.7788 16.4415C37.7595 16.0175 37.509 15.6512 37.0271 15.3621C36.1404 14.8224 34.6755 14.8224 33.7889 15.3621C33.442 15.5549 33.1721 15.8633 33.0757 16.2488C32.9601 16.7499 32.6324 17.174 32.1698 17.4438L32.1505 17.4631C31.7265 17.7137 31.2061 17.7137 30.782 17.4631L26.4452 14.6875L23.0528 16.8463C23.9009 16.9234 24.6911 17.2125 25.4043 17.6751C26.9656 18.7352 26.9656 20.3929 25.4043 21.453C24.4791 22.0312 23.419 22.3396 22.3203 22.3204C21.2217 22.3589 20.1423 22.0698 19.2171 21.5108C18.581 21.106 18.1762 20.6049 18.022 20.0459L14.3598 22.2818L24.2864 27.3511C25.7127 28.0835 27.3896 28.0835 28.7967 27.3511Z" fill="#41BEAD"/>
<path d="M68.8306 8.9629C68.7535 9.09782 68.6572 9.1942 68.5415 9.29057C68.4259 9.36767 68.2909 9.40622 68.156 9.40622C68.0018 9.40622 67.8476 9.3484 67.7127 9.2713L67.173 8.98217C66.9417 8.86652 66.7104 8.77015 66.4791 8.69305C66.19 8.59668 65.8816 8.55813 65.5924 8.55813C65.0142 8.55813 64.5902 8.67378 64.301 8.92435C64.0119 9.17492 63.8577 9.54115 63.877 9.92664C63.877 10.1772 63.9541 10.4085 64.1276 10.6013C64.3203 10.794 64.5516 10.9482 64.8022 11.0639C65.1106 11.1988 65.4383 11.3144 65.7467 11.4108C66.0936 11.5265 66.4598 11.6421 66.826 11.7578C67.1923 11.8927 67.5585 12.0469 67.9054 12.2204C68.2524 12.3938 68.5801 12.6251 68.8499 12.895C69.139 13.1841 69.3703 13.5118 69.5245 13.8973C69.698 14.3406 69.7944 14.8225 69.7751 15.3043C69.7751 15.9019 69.6787 16.4801 69.4667 17.0198C69.2547 17.5402 68.9463 18.0221 68.5415 18.4076C68.1175 18.8124 67.597 19.14 67.0381 19.3521C66.402 19.5834 65.7081 19.699 65.0142 19.699C64.5902 19.699 64.1661 19.6605 63.7613 19.5641C63.3373 19.487 62.9132 19.3521 62.5085 19.1979C62.123 19.0437 61.7375 18.8702 61.3712 18.6389C61.0436 18.4462 60.7352 18.1956 60.446 17.9257L61.352 16.4801C61.4291 16.3645 61.5254 16.2874 61.6411 16.2295C61.7567 16.1524 61.8917 16.1332 62.0266 16.1332C62.2193 16.1332 62.4121 16.191 62.5856 16.3066C62.7783 16.4223 62.9711 16.5572 63.2216 16.6921C63.4722 16.8463 63.7421 16.9813 64.0312 17.0776C64.3781 17.1933 64.7444 17.2511 65.1106 17.2511C65.5732 17.2704 66.0358 17.1547 66.4213 16.8849C66.7297 16.6343 66.8839 16.2488 66.8839 15.7091C66.9031 15.4393 66.8068 15.1694 66.6333 14.9574C66.4405 14.7454 66.2285 14.5719 65.9587 14.4562C65.6503 14.3213 65.3419 14.2057 65.0142 14.1093C64.6673 14.0129 64.301 13.8973 63.9348 13.7816C63.5686 13.666 63.2024 13.5118 62.8554 13.3383C62.5085 13.1648 62.1808 12.9335 61.9109 12.6637C61.6218 12.3553 61.3905 12.0083 61.2363 11.6036C61.0436 11.1024 60.9665 10.582 60.9857 10.0423C60.9857 9.54115 61.0821 9.04 61.2941 8.5774C61.5062 8.09553 61.7953 7.67148 62.1808 7.30526C62.5856 6.91976 63.0867 6.61136 63.6071 6.41861C64.2239 6.18731 64.8793 6.07166 65.5539 6.09094C65.9587 6.09094 66.3442 6.12949 66.7489 6.18731C67.1152 6.24514 67.4814 6.34151 67.8476 6.47644C68.1753 6.59209 68.503 6.74629 68.8114 6.91976C69.1005 7.07396 69.3703 7.26671 69.6209 7.49801L68.8306 8.9629Z" fill="#FF9100"/>
<path d="M75.6154 9.94591C76.29 9.94591 76.9454 10.0423 77.5814 10.2929C78.1404 10.5049 78.6608 10.8326 79.1042 11.2566C79.5282 11.6807 79.8752 12.2011 80.0872 12.7793C80.3378 13.4154 80.4534 14.1093 80.4341 14.8032C80.4534 15.4971 80.3185 16.191 80.0872 16.8463C79.8752 17.4246 79.5282 17.945 79.1042 18.3883C78.6801 18.8124 78.1597 19.14 77.5814 19.3713C76.9647 19.6026 76.29 19.7183 75.6154 19.7183C74.9408 19.7183 74.2662 19.6026 73.6494 19.3713C73.0711 19.1593 72.5507 18.8316 72.1267 18.3883C71.6833 17.945 71.3557 17.4246 71.1436 16.8463C70.8931 16.191 70.7774 15.4971 70.7967 14.8032C70.7774 14.1093 70.9123 13.4347 71.1436 12.7793C71.3557 12.2011 71.7026 11.6807 72.1267 11.2566C72.57 10.8326 73.0904 10.5049 73.6494 10.2929C74.2662 10.0423 74.9408 9.92664 75.6154 9.94591ZM75.6154 17.5788C76.2708 17.5788 76.7334 17.3475 77.0418 16.8849C77.3502 16.4223 77.5044 15.7284 77.5044 14.8032C77.5044 13.878 77.3502 13.1648 77.0418 12.7215C76.7334 12.2589 76.2515 12.0469 75.6154 12.0469C74.9408 12.0469 74.4589 12.2782 74.1505 12.7215C73.8421 13.1841 73.6879 13.878 73.6879 14.8032C73.6879 15.7284 73.8421 16.4416 74.1505 16.8849C74.4589 17.3282 74.9408 17.5788 75.6154 17.5788Z" fill="#FF9100"/>
<path d="M91.2859 12.0275V16.7113C91.2859 16.9041 91.3438 17.0968 91.4401 17.251C91.5558 17.386 91.7293 17.4823 91.9027 17.4631C91.9991 17.4631 92.0762 17.4631 92.1726 17.4245C92.2304 17.4052 92.2882 17.386 92.3461 17.3474L92.5003 17.2703C92.5581 17.251 92.5966 17.2318 92.6545 17.2318C92.7316 17.2318 92.8087 17.251 92.8665 17.2896C92.9243 17.3474 92.9821 17.4052 93.0207 17.4823L93.8688 18.8123C93.5026 19.0822 93.0785 19.2942 92.6352 19.4291C92.1726 19.564 91.71 19.6411 91.2281 19.6411C90.8233 19.6411 90.4186 19.5833 90.0331 19.4484C89.3777 19.2171 88.8573 18.6967 88.6453 18.022C88.5104 17.6558 88.4525 17.2703 88.4525 16.8848V12.0275H85.0987V19.5255H82.2846V12.0275L81.6678 11.8926C81.475 11.8541 81.3015 11.777 81.1473 11.6613C81.0124 11.5457 80.9353 11.3722 80.9546 11.1987V10.0808H82.2846V9.54108C82.2846 9.03993 82.3617 8.53878 82.5544 8.07619C82.7086 7.65214 82.9785 7.26664 83.3061 6.95824C83.6531 6.63057 84.0579 6.39927 84.5012 6.24507C85.0216 6.0716 85.5613 5.97522 86.101 5.9945C86.313 5.9945 86.525 6.01377 86.7371 6.03305C86.9491 6.0716 87.1418 6.11015 87.3539 6.16797L87.296 7.53649C87.296 7.70996 87.1997 7.84489 87.0647 7.92199C86.9876 7.96054 86.9105 7.99909 86.8334 8.01836C86.7563 8.03764 86.6792 8.03764 86.6021 8.03764C86.3708 8.03764 86.1588 8.05691 85.9275 8.11474C85.754 8.15329 85.5806 8.24966 85.4456 8.36531C85.3107 8.50023 85.2143 8.67371 85.1565 8.84718C85.0794 9.09776 85.0409 9.34833 85.0601 9.61818V10.0615H88.626L89.185 7.74851C89.2428 7.45939 89.5127 7.26664 89.8018 7.30519H91.2667V10.0615H93.5989V11.989L91.2859 12.0275Z" fill="#FF9100"/>
<path d="M100.576 17.0969C100.962 17.0969 101.328 17.0391 101.675 16.8849C101.983 16.7499 102.273 16.5572 102.504 16.3066C102.735 16.0368 102.909 15.7091 103.024 15.3814C103.14 14.9767 103.217 14.5526 103.198 14.1286V6.2644H106.282V14.1286C106.282 14.8996 106.166 15.6513 105.896 16.3645C105.646 17.0198 105.26 17.6173 104.759 18.1185C104.258 18.6196 103.641 19.0244 102.966 19.275C101.424 19.8147 99.7476 19.8147 98.2056 19.275C97.531 19.0244 96.9142 18.6196 96.413 18.1185C95.9119 17.6173 95.5264 17.0198 95.2758 16.3645C95.0059 15.6513 94.871 14.8803 94.8903 14.1286V6.2644H97.9743V14.1093C97.9743 14.5333 98.0321 14.9574 98.1478 15.3622C98.2441 15.7091 98.4176 16.0175 98.6489 16.3066C98.8802 16.5572 99.1501 16.7692 99.4777 16.9041C99.8247 17.0391 100.191 17.0969 100.576 17.0969Z" fill="#FF9100"/>
<path d="M110.638 11.1024C110.811 10.9289 111.004 10.7747 111.197 10.6205C111.39 10.4663 111.602 10.3507 111.814 10.2543C112.045 10.1579 112.276 10.0615 112.527 10.0037C112.797 9.9459 113.086 9.90735 113.375 9.90735C113.838 9.90735 114.319 10.0037 114.743 10.1965C115.129 10.3699 115.476 10.6205 115.746 10.9482C116.035 11.2759 116.228 11.6614 116.363 12.0854C116.497 12.548 116.575 13.0299 116.575 13.5118V19.5062H113.76V13.531C113.78 13.1455 113.664 12.76 113.433 12.4516C113.201 12.1818 112.855 12.0469 112.488 12.0661C112.18 12.0661 111.891 12.124 111.621 12.2589C111.332 12.3938 111.062 12.5866 110.831 12.7986V19.5448H108.017V10.1001H109.771C110.079 10.0808 110.368 10.2736 110.464 10.582L110.638 11.1024Z" fill="#FF9100"/>
<path d="M121.586 7.49799C121.586 7.71001 121.547 7.94131 121.451 8.13406C121.355 8.32681 121.239 8.50028 121.085 8.65448C120.931 8.80868 120.738 8.92433 120.526 9.00143C120.314 9.0978 120.083 9.13635 119.851 9.13635C119.62 9.13635 119.408 9.0978 119.215 9.00143C119.022 8.92433 118.83 8.7894 118.676 8.65448C118.521 8.50028 118.406 8.32681 118.309 8.13406C118.213 7.94131 118.174 7.71001 118.174 7.49799C118.174 7.26669 118.213 7.05466 118.309 6.86191C118.386 6.66916 118.521 6.47642 118.676 6.34149C118.83 6.18729 119.022 6.07164 119.215 5.99454C119.427 5.91744 119.639 5.85962 119.851 5.85962C120.083 5.85962 120.314 5.89817 120.526 5.99454C120.931 6.16802 121.258 6.47642 121.451 6.88119C121.547 7.05466 121.586 7.28596 121.586 7.49799ZM121.297 10.0808V19.5255H118.483V10.0808H121.297Z" fill="#FF9100"/>
<path d="M64.5709 28.1028H65.0528C65.5154 28.1028 65.8431 27.9679 66.0358 27.6788L69.0234 23.3419C69.1776 23.1299 69.3704 22.9757 69.6017 22.86C69.8522 22.7636 70.1028 22.7251 70.3534 22.7251H73.0326L69.1005 28.0835C68.8692 28.4112 68.5608 28.681 68.1946 28.8931C68.4259 28.9702 68.6379 29.1051 68.8307 29.24C69.0427 29.4135 69.2162 29.6062 69.3511 29.8375L73.3603 35.9862H70.604C70.4498 35.9862 70.2956 35.967 70.1606 35.9477C70.045 35.9284 69.9293 35.8899 69.833 35.832C69.7366 35.7935 69.6595 35.7357 69.6017 35.6586C69.5246 35.5815 69.4667 35.5044 69.4089 35.4273L66.402 30.8206C66.3057 30.6664 66.1515 30.5314 65.9973 30.4543C65.7852 30.3772 65.5539 30.3387 65.3226 30.358H64.5709V36.0055H61.4869V22.7444H64.5709V28.1028Z" fill="#FF9100"/>
<path d="M77.2152 23.978C77.2152 24.19 77.1767 24.4213 77.0803 24.614C76.9839 24.8068 76.8683 24.9803 76.7141 25.1345C76.5599 25.2887 76.3671 25.4043 76.1551 25.4814C75.9431 25.5778 75.7118 25.6163 75.4805 25.6163C75.2492 25.6163 75.0372 25.5778 74.8251 25.4814C74.6324 25.4043 74.4396 25.2694 74.2854 25.1345C74.1312 24.9803 74.0156 24.8068 73.9192 24.614C73.8229 24.4213 73.7843 24.19 73.7843 23.978C73.7843 23.7467 73.8229 23.5346 73.9192 23.3419C73.9963 23.1491 74.1312 22.9564 74.2854 22.8215C74.4396 22.6673 74.6131 22.5516 74.8251 22.4745C75.0372 22.3974 75.2492 22.3396 75.4805 22.3396C75.7118 22.3396 75.9431 22.3781 76.1551 22.4745C76.5599 22.6287 76.8875 22.9564 77.0803 23.3612C77.1767 23.5346 77.2152 23.7467 77.2152 23.978ZM76.9261 26.5608V36.0055H74.112V26.5608H76.9261Z" fill="#FF9100"/>
<path d="M87.4502 22.3782V36.0055H85.6962C85.3878 36.0248 85.0987 35.832 85.0023 35.5236L84.7903 34.8105C84.5975 35.0032 84.4048 35.196 84.1928 35.3502C83.9807 35.5236 83.7687 35.6586 83.5181 35.7742C83.2676 35.8899 83.017 35.9862 82.7471 36.0441C82.458 36.1019 82.1496 36.1404 81.8605 36.1404C81.3786 36.1404 80.916 36.0248 80.492 35.8128C80.0679 35.5815 79.6824 35.2538 79.4126 34.8683C79.0849 34.4057 78.8536 33.9046 78.6994 33.3456C78.5259 32.671 78.4296 31.9963 78.4296 31.3024C78.4296 30.6278 78.5259 29.9725 78.7187 29.3364C78.8922 28.7774 79.1813 28.2377 79.5475 27.7751C79.8945 27.3511 80.3378 26.9849 80.8197 26.7343C81.3401 26.4837 81.899 26.3488 82.458 26.3681C82.8821 26.3488 83.3061 26.4259 83.6916 26.5801C84.0193 26.715 84.3277 26.9078 84.5975 27.1391V22.3589L87.4502 22.3782ZM84.6361 29.0858C84.4433 28.8738 84.212 28.7003 83.9422 28.5847C83.6916 28.4883 83.4218 28.4498 83.1519 28.4498C82.9013 28.4498 82.6508 28.5076 82.4387 28.604C82.2074 28.7196 82.0147 28.8931 81.8605 29.1051C81.687 29.3749 81.5521 29.6833 81.475 29.9917C81.3786 30.4158 81.3401 30.8591 81.3401 31.3217C81.3401 31.7458 81.3786 32.1698 81.4557 32.5746C81.5136 32.8637 81.6099 33.1336 81.7641 33.4034C81.8798 33.5962 82.034 33.7504 82.2267 33.8467C82.4195 33.9431 82.6315 33.9817 82.8435 33.9817C83.0363 33.9817 83.229 33.9624 83.4025 33.9238C83.5567 33.8853 83.7109 33.8275 83.8651 33.7504C84 33.6733 84.1349 33.5769 84.2506 33.4805C84.3855 33.3649 84.5012 33.2299 84.6168 33.095L84.6361 29.0858Z" fill="#FF9100"/>
<path d="M95.3722 28.6233C95.3144 28.7197 95.2373 28.8161 95.1409 28.8739C95.0445 28.9317 94.9289 28.951 94.8325 28.951C94.6976 28.951 94.5626 28.9125 94.4277 28.8739L94.0037 28.6812C93.8302 28.6041 93.6567 28.5462 93.4833 28.4884C93.2712 28.4306 93.0399 28.392 92.8086 28.4113C92.5195 28.392 92.2304 28.4691 91.9798 28.6233C91.7871 28.7583 91.6907 28.9703 91.6907 29.2016C91.6907 29.3751 91.7678 29.5293 91.8834 29.6449C92.0376 29.7798 92.1918 29.8762 92.3846 29.9533C92.6159 30.0497 92.8472 30.1268 93.0785 30.2039C93.3291 30.281 93.5989 30.3774 93.888 30.4737C94.1579 30.5701 94.4277 30.6858 94.6976 30.8207C94.9481 30.9556 95.1987 31.1098 95.3915 31.3025C95.6035 31.4953 95.777 31.7266 95.8926 31.9964C96.0275 32.3048 96.0854 32.6325 96.0854 32.9795C96.0854 33.4228 96.0083 33.8661 95.8348 34.2709C95.6613 34.6564 95.4107 35.0226 95.0831 35.2925C94.7168 35.6009 94.2928 35.8129 93.8302 35.9478C93.2712 36.1213 92.693 36.1984 92.1147 36.1791C91.7871 36.1791 91.4594 36.1405 91.151 36.0827C90.8426 36.0249 90.5149 35.9478 90.2258 35.8321C89.9367 35.7358 89.6668 35.6201 89.397 35.4659C89.1657 35.331 88.9344 35.1768 88.7416 35.0033L89.397 33.9625C89.4741 33.8468 89.5512 33.7505 89.6668 33.6734C89.8018 33.5963 89.956 33.5577 90.0909 33.577C90.2451 33.577 90.3993 33.6155 90.5342 33.6926L90.9582 33.9239C91.1317 34.0203 91.3052 34.0974 91.4979 34.1552C91.7485 34.2323 91.9991 34.2709 92.2689 34.2709C92.4617 34.2709 92.6352 34.2516 92.8279 34.1938C92.9628 34.1552 93.0785 34.0974 93.1941 34.001C93.3676 33.8661 93.464 33.6541 93.464 33.4421C93.464 33.2686 93.4062 33.0951 93.2712 32.9795C93.117 32.8445 92.9628 32.7482 92.7701 32.6711C92.5388 32.5747 92.3075 32.4976 92.0569 32.4205C91.7871 32.3434 91.5172 32.2663 91.2474 32.1506C90.9775 32.0543 90.7077 31.9386 90.4378 31.8037C90.168 31.6688 89.9367 31.4953 89.7247 31.2833C89.5126 31.052 89.3392 30.8014 89.2235 30.5123C89.0886 30.1653 89.0308 29.7798 89.0308 29.4136C89.0308 29.0281 89.1079 28.6233 89.2621 28.2764C89.4163 27.9102 89.6668 27.5825 89.956 27.3319C90.3029 27.0428 90.6884 26.8115 91.1125 26.6766C91.6329 26.5031 92.1918 26.426 92.7508 26.4453C93.0785 26.4453 93.4062 26.4838 93.7338 26.5416C94.0422 26.5995 94.3314 26.6766 94.6205 26.7922C94.8903 26.8886 95.1409 27.0235 95.3915 27.1777C95.6035 27.3126 95.8155 27.4861 96.0083 27.6596L95.3722 28.6233Z" fill="#FF9100"/>
<path d="M19.5254 8.51957C19.9109 8.77014 19.8917 9.15564 19.5254 9.40621H19.5062C18.9279 9.75316 18.2918 9.94591 17.6365 9.98446C17.1546 10.023 16.692 10.1579 16.2873 10.4085C15.8247 10.6976 15.5741 11.0831 15.5934 11.5072C15.6126 11.9312 15.8632 12.2974 16.3258 12.5866C17.2125 13.1263 18.6581 13.1263 19.5447 12.5866C19.8917 12.3938 20.1615 12.0854 20.2579 11.6999C20.3735 11.1988 20.7012 10.7747 21.1638 10.5049L21.2024 10.4856C21.6264 10.235 22.1468 10.235 22.5516 10.4856L26.8499 13.2612L30.223 11.1217C29.3749 11.0446 28.6039 10.7555 27.8907 10.3121C26.3488 9.25201 26.3488 7.61365 27.8907 6.55353C28.8159 5.97528 29.8568 5.66688 30.9555 5.68616C32.0541 5.64761 33.1142 5.93673 34.0587 6.4957C34.6755 6.90047 35.0996 7.40162 35.2345 7.94132L38.7425 5.93673L29.24 0.867432C27.8136 0.0964356 26.0596 0.0964356 24.6333 0.867432L15.1693 5.89818L19.5254 8.51957Z" fill="#41BEAD"/>
<path d="M53.1023 13.0299L47.0886 9.8303C47.0115 9.79175 46.9344 9.7532 46.8765 9.71465L40.4966 6.32227L35.832 9.0593C35.4465 9.30987 34.8297 9.30987 34.4635 9.0593H34.4442C33.9431 8.73163 33.6154 8.30758 33.5383 7.84498C33.4805 7.51731 33.2299 7.20891 32.8637 6.95834C32.4011 6.66921 31.7843 6.49574 31.1675 6.51501C30.5122 6.51501 29.9146 6.68849 29.4713 6.99689C28.6232 7.57513 28.6232 8.50033 29.4713 9.07858C29.8568 9.32915 30.3387 9.50262 30.8784 9.54117C31.6108 9.599 32.2469 9.81102 32.7288 10.1194L32.748 10.1387C33.1335 10.3893 33.1335 10.7748 32.748 11.0253L28.3726 13.8202L31.7457 15.9597C31.9192 15.3815 32.3625 14.8418 33.0372 14.4563C34.6948 13.4347 37.2969 13.4347 38.9738 14.437C39.8412 14.9574 40.3231 15.6706 40.3231 16.403C40.3424 17.174 39.8798 17.8679 39.0317 18.4076C38.3956 18.8124 37.6246 19.0822 36.7379 19.1786L40.458 21.6844L38.9738 22.4746V30.1268L27.0812 36.0249H27.0619H27.0427L15.1886 30.146L14.8417 22.4168L13.2418 21.6265L18.1184 18.5425C18.5039 18.292 19.1207 18.292 19.4869 18.5425H19.5062C20.0073 18.8702 20.335 19.2943 20.4121 19.7569C20.4699 20.0845 20.7205 20.3929 21.0867 20.6435C21.5493 20.9326 22.1661 21.1061 22.7829 21.0868C23.4383 21.0868 24.0358 20.9134 24.4598 20.605C25.3079 20.0267 25.3079 19.1015 24.4598 18.5233C24.0743 18.2534 23.5925 18.0992 23.0528 18.0607C22.3203 18.0029 21.7035 17.8101 21.2024 17.4824L21.1831 17.4632C20.7976 17.2126 20.7976 16.8271 21.1831 16.5765L25.5585 13.7817L22.2047 11.6229C22.0312 12.2011 21.5879 12.7408 20.9132 13.1263C19.2556 14.1479 16.6535 14.1479 14.9766 13.1456C14.938 13.1263 14.8995 13.107 14.8609 13.0878C14.0707 12.5673 13.6081 11.8927 13.6081 11.1795C13.5888 10.4085 14.0514 9.71465 14.8995 9.17495C15.5356 8.77018 16.3065 8.50033 17.1932 8.40395L13.5695 6.34154L1.02155 13.0299C0.0963583 13.5118 0.115633 14.8225 1.04083 15.3044L9.86873 19.7954V33.442L27.0619 41.9808L44.2552 33.442V19.7954L46.7802 18.504C46.838 18.4655 46.9151 18.4269 46.9729 18.4076L53.0638 15.3044C53.989 14.8225 54.0083 13.5118 53.1023 13.0299Z" fill="#41BEAD"/>
</svg>
