<svg width="32" height="29" viewBox="0 0 32 29" fill="none" xmlns="http://www.w3.org/2000/svg">
<path d="M31.0625 0.8125H27.25C26.7318 0.8125 26.3125 1.23181 26.3125 1.75V2.6875H24.4375V1.75C24.4375 1.23181 24.0182 0.8125 23.5 0.8125H17.875C17.3568 0.8125 16.9375 1.23181 16.9375 1.75V2.6875H15.0625V1.75C15.0625 1.23181 14.6432 0.8125 14.125 0.8125H8.5C7.98181 0.8125 7.5625 1.23181 7.5625 1.75V2.6875H5.6875V1.75C5.6875 1.23181 5.26819 0.8125 4.75 0.8125H0.9375C0.419312 0.8125 0 1.23181 0 1.75V28.0625C0 28.5807 0.419312 29 0.9375 29H31.0625C31.5807 29 32 28.5807 32 28.0625V1.75C32 1.23181 31.5807 0.8125 31.0625 0.8125Z" fill="url(#paint0_linear)"/>
<defs>
<linearGradient id="paint0_linear" x1="16" y1="29" x2="16" y2="0.8125" gradientUnits="userSpaceOnUse">
<stop stop-color="#FD5900"/>
<stop offset="1" stop-color="#FFDE00"/>
</linearGradient>
</defs>
</svg>
