<svg width="32" height="18" viewBox="0 0 32 18" fill="none" xmlns="http://www.w3.org/2000/svg">
<path d="M0.9375 0.5625C0.412438 0.5625 0 0.974938 0 1.5V5.11875C2.79375 5.8125 5.25 3.35625 4.55625 0.5625H0.9375ZM0 12.8813V16.5C0 17.0249 0.412438 17.4375 0.9375 17.4375H4.55625C5.25 14.6438 2.79375 12.1875 0 12.8813ZM27.4438 17.4375H31.0625C31.5876 17.4375 32 17.0249 32 16.5V12.8625C29.2063 12.1875 26.75 14.6438 27.4438 17.4375ZM31.0625 0.5625H27.425C26.75 3.35625 29.2063 5.8125 32 5.1375V1.5C32 0.974938 31.5876 0.5625 31.0625 0.5625ZM6.5625 8.0625C6.04475 8.0625 5.625 8.48225 5.625 9C5.625 9.51775 6.04475 9.9375 6.5625 9.9375C7.08025 9.9375 7.5 9.51775 7.5 9C7.5 8.48225 7.08025 8.0625 6.5625 8.0625ZM25.4375 8.0625C24.9198 8.0625 24.5 8.48225 24.5 9C24.5 9.51775 24.9198 9.9375 25.4375 9.9375C25.9553 9.9375 26.375 9.51775 26.375 9C26.375 8.48225 25.9553 8.0625 25.4375 8.0625ZM16 0.5625C12.3818 0.5625 9.4375 4.34731 9.4375 9C9.4375 13.6527 12.3818 17.4375 16 17.4375C19.6182 17.4375 22.5625 13.6527 22.5625 9C22.5625 4.34731 19.6182 0.5625 16 0.5625Z" fill="url(#paint0_linear)"/>
<defs>
<linearGradient id="paint0_linear" x1="16" y1="17.4375" x2="16" y2="0.5625" gradientUnits="userSpaceOnUse">
<stop stop-color="#9BFF9D"/>
<stop offset="0.9973" stop-color="#E2FFEA"/>
<stop offset="1" stop-color="#2CAE50"/>
</linearGradient>
</defs>
</svg>
