<svg width="32" height="32" viewBox="0 0 32 32" fill="none" xmlns="http://www.w3.org/2000/svg">
<path d="M4.55625 24.4375H27.4438L32 19.8625V12.1375L27.425 7.5625H4.55625L0 12.1187V19.8813L4.55625 24.4375Z" fill="url(#paint0_linear)"/>
<path d="M0.9375 7.5625C0.412438 7.5625 0 7.97494 0 8.5V12.1187C2.79375 12.8125 5.25 10.3563 4.55625 7.5625H0.9375ZM0 19.8813V23.5C0 24.0249 0.412438 24.4375 0.9375 24.4375H4.55625C5.25 21.6438 2.79375 19.1875 0 19.8813ZM27.4438 24.4375H31.0625C31.5876 24.4375 32 24.0249 32 23.5V19.8625C29.2063 19.1875 26.75 21.6438 27.4438 24.4375ZM31.0625 7.5625H27.425C26.75 10.3563 29.2063 12.8125 32 12.1375V8.5C32 7.97494 31.5876 7.5625 31.0625 7.5625ZM6.5625 15.0625C6.04475 15.0625 5.625 15.4823 5.625 16C5.625 16.5178 6.04475 16.9375 6.5625 16.9375C7.08025 16.9375 7.5 16.5178 7.5 16C7.5 15.4823 7.08025 15.0625 6.5625 15.0625ZM25.4375 15.0625C24.9198 15.0625 24.5 15.4823 24.5 16C24.5 16.5178 24.9198 16.9375 25.4375 16.9375C25.9553 16.9375 26.375 16.5178 26.375 16C26.375 15.4823 25.9553 15.0625 25.4375 15.0625ZM16 7.5625C12.3818 7.5625 9.4375 11.3473 9.4375 16C9.4375 20.6527 12.3818 24.4375 16 24.4375C19.6182 24.4375 22.5625 20.6527 22.5625 16C22.5625 11.3473 19.6182 7.5625 16 7.5625Z" fill="url(#paint1_linear)"/>
<defs>
<linearGradient id="paint0_linear" x1="16" y1="24.4375" x2="16" y2="7.5625" gradientUnits="userSpaceOnUse">
<stop stop-color="#00B59C"/>
<stop offset="1" stop-color="#9CFFAC"/>
</linearGradient>
<linearGradient id="paint1_linear" x1="16" y1="24.4375" x2="16" y2="7.5625" gradientUnits="userSpaceOnUse">
<stop stop-color="#9BFF9D"/>
<stop offset="0.9973" stop-color="#E2FFEA"/>
<stop offset="1" stop-color="#2CAE50"/>
</linearGradient>
</defs>
</svg>
