<svg width="32" height="32" viewBox="0 0 32 32" fill="none" xmlns="http://www.w3.org/2000/svg">
<g clip-path="url(#clip0)">
<path d="M21.625 21.0575H10.375C9.85725 21.0575 9.4375 21.4772 9.4375 21.995V31.0625C9.4375 31.4083 9.62781 31.726 9.93262 31.8891C10.2375 32.0523 10.6073 32.0344 10.895 31.8426L16 28.4393L21.105 31.8426C21.3931 32.0347 21.7631 32.052 22.0674 31.8891C22.3722 31.726 22.5625 31.4083 22.5625 31.0625V21.995C22.5625 21.4772 22.1427 21.0575 21.625 21.0575Z" fill="url(#paint0_linear)"/>
<path d="M16 24.4375C9.27981 24.4375 3.8125 18.9702 3.8125 12.25C3.8125 5.49531 9.27981 0 16 0C22.7202 0 28.1875 5.49531 28.1875 12.25C28.1875 18.9702 22.7202 24.4375 16 24.4375Z" fill="url(#paint1_linear)"/>
<path d="M18.8698 17.6305L15.9998 16.1217L13.1298 17.6306C12.8138 17.7967 12.4312 17.7689 12.1425 17.5592C11.8538 17.3494 11.7092 16.994 11.7695 16.6423L12.3176 13.4464L9.99576 11.1831C9.74026 10.9341 9.64826 10.5615 9.75858 10.2221C9.86889 9.88275 10.1622 9.63538 10.5153 9.58406L13.7241 9.11781L15.1591 6.21012C15.3171 5.89012 15.643 5.6875 15.9998 5.6875C16.3567 5.6875 16.6826 5.89013 16.8405 6.21006L18.2755 9.11775L21.4843 9.584C21.8375 9.63531 22.1308 9.88269 22.2411 10.2221C22.3513 10.5614 22.2594 10.934 22.0039 11.1831L19.682 13.4464L20.2301 16.6422C20.2905 16.9939 20.1458 17.3494 19.8571 17.5591C19.5712 17.767 19.1885 17.7981 18.8698 17.6305Z" fill="url(#paint2_linear)"/>
</g>
<defs>
<linearGradient id="paint0_linear" x1="16" y1="32" x2="16" y2="21.0575" gradientUnits="userSpaceOnUse">
<stop stop-color="#FD5900"/>
<stop offset="1" stop-color="#FFDE00"/>
</linearGradient>
<linearGradient id="paint1_linear" x1="16" y1="24.4375" x2="16" y2="0" gradientUnits="userSpaceOnUse">
<stop stop-color="#FFE59A"/>
<stop offset="1" stop-color="#FFFFD5"/>
</linearGradient>
<linearGradient id="paint2_linear" x1="15.9998" y1="17.7382" x2="15.9998" y2="5.6875" gradientUnits="userSpaceOnUse">
<stop stop-color="#FD5900"/>
<stop offset="1" stop-color="#FFDE00"/>
</linearGradient>
<clipPath id="clip0">
<rect width="32" height="32" fill="white"/>
</clipPath>
</defs>
</svg>
