<svg width="1288" height="10" viewBox="0 0 1288 10" fill="none" xmlns="http://www.w3.org/2000/svg">
<circle r="5" transform="matrix(4.37114e-08 -1 -1 -4.37114e-08 779 5.00006)" fill="#DFF4F1"/>
<circle r="5" transform="matrix(4.37114e-08 -1 -1 -4.37114e-08 941 5.00006)" fill="#DFF4F1"/>
<circle r="5" transform="matrix(4.37114e-08 -1 -1 -4.37114e-08 1103 5.00006)" fill="#DFF4F1"/>
<circle r="5" transform="matrix(4.37114e-08 -1 -1 -4.37114e-08 1265 5.00006)" fill="#DFF4F1"/>
<circle r="5" transform="matrix(4.37114e-08 -1 -1 -4.37114e-08 635 5.00006)" fill="#DFF4F1"/>
<circle r="5" transform="matrix(4.37114e-08 -1 -1 -4.37114e-08 797 5.00006)" fill="#DFF4F1"/>
<circle r="5" transform="matrix(4.37114e-08 -1 -1 -4.37114e-08 959 5.00006)" fill="#DFF4F1"/>
<circle r="5" transform="matrix(4.37114e-08 -1 -1 -4.37114e-08 1121 5.00006)" fill="#DFF4F1"/>
<circle r="5" transform="matrix(4.37114e-08 -1 -1 -4.37114e-08 1283 5.00006)" fill="#DFF4F1"/>
<circle r="5" transform="matrix(4.37114e-08 -1 -1 -4.37114e-08 653 5.00006)" fill="#DFF4F1"/>
<circle r="5" transform="matrix(4.37114e-08 -1 -1 -4.37114e-08 815 5.00006)" fill="#DFF4F1"/>
<circle r="5" transform="matrix(4.37114e-08 -1 -1 -4.37114e-08 977 5.00006)" fill="#DFF4F1"/>
<circle r="5" transform="matrix(4.37114e-08 -1 -1 -4.37114e-08 1139 5.00006)" fill="#DFF4F1"/>
<circle r="5" transform="matrix(4.37114e-08 -1 -1 -4.37114e-08 671 5.00006)" fill="#DFF4F1"/>
<circle r="5" transform="matrix(4.37114e-08 -1 -1 -4.37114e-08 833 5.00006)" fill="#DFF4F1"/>
<circle r="5" transform="matrix(4.37114e-08 -1 -1 -4.37114e-08 995 5.00006)" fill="#DFF4F1"/>
<circle r="5" transform="matrix(4.37114e-08 -1 -1 -4.37114e-08 1157 5.00006)" fill="#DFF4F1"/>
<circle r="5" transform="matrix(4.37114e-08 -1 -1 -4.37114e-08 689 5.00006)" fill="#DFF4F1"/>
<circle r="5" transform="matrix(4.37114e-08 -1 -1 -4.37114e-08 851 5.00006)" fill="#DFF4F1"/>
<circle r="5" transform="matrix(4.37114e-08 -1 -1 -4.37114e-08 1013 5.00006)" fill="#DFF4F1"/>
<circle r="5" transform="matrix(4.37114e-08 -1 -1 -4.37114e-08 1175 5.00006)" fill="#DFF4F1"/>
<circle r="5" transform="matrix(4.37114e-08 -1 -1 -4.37114e-08 707 5.00006)" fill="#DFF4F1"/>
<circle r="5" transform="matrix(4.37114e-08 -1 -1 -4.37114e-08 869 5.00006)" fill="#DFF4F1"/>
<circle r="5" transform="matrix(4.37114e-08 -1 -1 -4.37114e-08 1031 5.00006)" fill="#DFF4F1"/>
<circle r="5" transform="matrix(4.37114e-08 -1 -1 -4.37114e-08 1193 5.00006)" fill="#DFF4F1"/>
<circle r="5" transform="matrix(4.37114e-08 -1 -1 -4.37114e-08 725 5.00006)" fill="#DFF4F1"/>
<circle r="5" transform="matrix(4.37114e-08 -1 -1 -4.37114e-08 887 5.00006)" fill="#DFF4F1"/>
<circle r="5" transform="matrix(4.37114e-08 -1 -1 -4.37114e-08 1049 5.00006)" fill="#DFF4F1"/>
<circle r="5" transform="matrix(4.37114e-08 -1 -1 -4.37114e-08 1211 5.00006)" fill="#DFF4F1"/>
<circle r="5" transform="matrix(4.37114e-08 -1 -1 -4.37114e-08 743 5.00006)" fill="#DFF4F1"/>
<circle r="5" transform="matrix(4.37114e-08 -1 -1 -4.37114e-08 905 5.00006)" fill="#DFF4F1"/>
<circle r="5" transform="matrix(4.37114e-08 -1 -1 -4.37114e-08 1067 5.00006)" fill="#DFF4F1"/>
<circle r="5" transform="matrix(4.37114e-08 -1 -1 -4.37114e-08 1229 5.00006)" fill="#DFF4F1"/>
<circle r="5" transform="matrix(4.37114e-08 -1 -1 -4.37114e-08 761 5.00006)" fill="#DFF4F1"/>
<circle r="5" transform="matrix(4.37114e-08 -1 -1 -4.37114e-08 923 5.00006)" fill="#DFF4F1"/>
<circle r="5" transform="matrix(4.37114e-08 -1 -1 -4.37114e-08 1085 5.00006)" fill="#DFF4F1"/>
<circle r="5" transform="matrix(4.37114e-08 -1 -1 -4.37114e-08 1247 5.00006)" fill="#DFF4F1"/>
<circle r="5" transform="matrix(4.37114e-08 -1 -1 -4.37114e-08 617 5.00006)" fill="#DFF4F1"/>
<circle r="5" transform="matrix(4.37114e-08 -1 -1 -4.37114e-08 455 5.00006)" fill="#DFF4F1"/>
<circle r="5" transform="matrix(4.37114e-08 -1 -1 -4.37114e-08 293 5.00003)" fill="#DFF4F1"/>
<circle r="5" transform="matrix(4.37114e-08 -1 -1 -4.37114e-08 131 5.00003)" fill="#DFF4F1"/>
<circle r="5" transform="matrix(4.37114e-08 -1 -1 -4.37114e-08 473 5.00006)" fill="#DFF4F1"/>
<circle r="5" transform="matrix(4.37114e-08 -1 -1 -4.37114e-08 311 5.00003)" fill="#DFF4F1"/>
<circle r="5" transform="matrix(4.37114e-08 -1 -1 -4.37114e-08 149 5.00003)" fill="#DFF4F1"/>
<circle r="5" transform="matrix(4.37114e-08 -1 -1 -4.37114e-08 491 5.00006)" fill="#DFF4F1"/>
<circle r="5" transform="matrix(4.37114e-08 -1 -1 -4.37114e-08 329 5.00003)" fill="#DFF4F1"/>
<circle r="5" transform="matrix(4.37114e-08 -1 -1 -4.37114e-08 167 5.00003)" fill="#DFF4F1"/>
<circle r="5" transform="matrix(4.37114e-08 -1 -1 -4.37114e-08 5 5.00003)" fill="#DFF4F1"/>
<circle r="5" transform="matrix(4.37114e-08 -1 -1 -4.37114e-08 509 5.00006)" fill="#DFF4F1"/>
<circle r="5" transform="matrix(4.37114e-08 -1 -1 -4.37114e-08 347 5.00003)" fill="#DFF4F1"/>
<circle r="5" transform="matrix(4.37114e-08 -1 -1 -4.37114e-08 185 5.00003)" fill="#DFF4F1"/>
<circle r="5" transform="matrix(4.37114e-08 -1 -1 -4.37114e-08 23 5.00003)" fill="#DFF4F1"/>
<circle r="5" transform="matrix(4.37114e-08 -1 -1 -4.37114e-08 527 5.00006)" fill="#DFF4F1"/>
<circle r="5" transform="matrix(4.37114e-08 -1 -1 -4.37114e-08 365 5.00003)" fill="#DFF4F1"/>
<circle r="5" transform="matrix(4.37114e-08 -1 -1 -4.37114e-08 203 5.00003)" fill="#DFF4F1"/>
<circle r="5" transform="matrix(4.37114e-08 -1 -1 -4.37114e-08 41 5.00003)" fill="#DFF4F1"/>
<circle r="5" transform="matrix(4.37114e-08 -1 -1 -4.37114e-08 545 5.00006)" fill="#DFF4F1"/>
<circle r="5" transform="matrix(4.37114e-08 -1 -1 -4.37114e-08 383 5.00003)" fill="#DFF4F1"/>
<circle r="5" transform="matrix(4.37114e-08 -1 -1 -4.37114e-08 221 5.00003)" fill="#DFF4F1"/>
<circle r="5" transform="matrix(4.37114e-08 -1 -1 -4.37114e-08 59 5.00003)" fill="#DFF4F1"/>
<circle r="5" transform="matrix(4.37114e-08 -1 -1 -4.37114e-08 563 5.00006)" fill="#DFF4F1"/>
<circle r="5" transform="matrix(4.37114e-08 -1 -1 -4.37114e-08 401 5.00003)" fill="#DFF4F1"/>
<circle r="5" transform="matrix(4.37114e-08 -1 -1 -4.37114e-08 239 5.00003)" fill="#DFF4F1"/>
<circle r="5" transform="matrix(4.37114e-08 -1 -1 -4.37114e-08 77 5.00003)" fill="#DFF4F1"/>
<circle r="5" transform="matrix(4.37114e-08 -1 -1 -4.37114e-08 581 5.00006)" fill="#DFF4F1"/>
<circle r="5" transform="matrix(4.37114e-08 -1 -1 -4.37114e-08 419 5.00003)" fill="#DFF4F1"/>
<circle r="5" transform="matrix(4.37114e-08 -1 -1 -4.37114e-08 257 5.00003)" fill="#DFF4F1"/>
<circle r="5" transform="matrix(4.37114e-08 -1 -1 -4.37114e-08 95 5.00003)" fill="#DFF4F1"/>
<circle r="5" transform="matrix(4.37114e-08 -1 -1 -4.37114e-08 599 5.00006)" fill="#DFF4F1"/>
<circle r="5" transform="matrix(4.37114e-08 -1 -1 -4.37114e-08 437 5.00003)" fill="#DFF4F1"/>
<circle r="5" transform="matrix(4.37114e-08 -1 -1 -4.37114e-08 275 5.00003)" fill="#DFF4F1"/>
<circle r="5" transform="matrix(4.37114e-08 -1 -1 -4.37114e-08 113 5.00003)" fill="#DFF4F1"/>
</svg>
