<svg width="32" height="32" viewBox="0 0 32 32" fill="none" xmlns="http://www.w3.org/2000/svg">
<g clip-path="url(#clip0)">
<path d="M16 32C15.6926 32 15.4049 31.8494 15.2297 31.5968C12.9651 28.3318 11.0064 25.8288 9.43262 23.8176C5.80869 19.1865 3.8125 16.6355 3.8125 12.1875C3.8125 5.46731 9.27981 0 16 0C22.7202 0 28.1875 5.46731 28.1875 12.1875C28.1875 16.6309 26.1776 19.2013 22.5287 23.8676C20.9617 25.8716 19.0116 28.3655 16.7703 31.5968C16.5951 31.8494 16.3074 32 16 32Z" fill="url(#paint0_linear)"/>
<path d="M16 18.75C12.3814 18.75 9.4375 15.8061 9.4375 12.1875C9.4375 8.56894 12.3814 5.625 16 5.625C19.6186 5.625 22.5625 8.56894 22.5625 12.1875C22.5625 15.8061 19.6186 18.75 16 18.75Z" fill="url(#paint1_linear)"/>
</g>
<defs>
<linearGradient id="paint0_linear" x1="16" y1="32" x2="16" y2="0" gradientUnits="userSpaceOnUse">
<stop stop-color="#FD3A84"/>
<stop offset="1" stop-color="#FFA68D"/>
</linearGradient>
<linearGradient id="paint1_linear" x1="16" y1="18.75" x2="16" y2="5.625" gradientUnits="userSpaceOnUse">
<stop stop-color="#FFC2CC"/>
<stop offset="1" stop-color="#FFF2F4"/>
</linearGradient>
<clipPath id="clip0">
<rect width="32" height="32" fill="white"/>
</clipPath>
</defs>
</svg>
