<svg width="32" height="32" viewBox="0 0 32 32" fill="none" xmlns="http://www.w3.org/2000/svg">
<path d="M8.5 7.5625C4.88181 7.5625 1.9375 10.5068 1.9375 14.125C1.9375 17.7432 4.88181 20.6875 8.5 20.6875C12.1182 20.6875 15.0625 17.7432 15.0625 14.125C15.0625 10.5068 12.1182 7.5625 8.5 7.5625ZM23.5 0C19.8818 0 16.9375 2.94431 16.9375 6.5625C16.9375 10.1807 19.8818 13.125 23.5 13.125C27.1182 13.125 30.0625 10.1807 30.0625 6.5625C30.0625 2.94431 27.1182 0 23.5 0Z" fill="url(#paint0_linear)"/>
<path d="M8.5 20.6875C3.84731 20.6875 0 24.4723 0 29.125V31.0625C0 31.5807 0.481812 32 1 32H16C16.5182 32 16.9375 31.5807 16.9375 31.0625V29.125C16.9375 24.4723 13.1527 20.6875 8.5 20.6875ZM23.5 13.125C18.8473 13.125 15.0625 16.9098 15.0625 21.5625V23.5C15.0625 24.0182 15.4818 24.4375 16 24.4375H31C31.5182 24.4375 32 24.0182 32 23.5V21.5625C32 16.9098 28.1527 13.125 23.5 13.125Z" fill="url(#paint1_linear)"/>
<defs>
<linearGradient id="paint0_linear" x1="16" y1="20.6875" x2="16" y2="0" gradientUnits="userSpaceOnUse">
<stop stop-color="#ADDCFF"/>
<stop offset="1" stop-color="#CBE9FF"/>
</linearGradient>
<linearGradient id="paint1_linear" x1="16" y1="32" x2="16" y2="13.125" gradientUnits="userSpaceOnUse">
<stop stop-color="#5558FF"/>
<stop offset="1" stop-color="#00C0FF"/>
</linearGradient>
</defs>
</svg>
