<svg width="24" height="32" viewBox="0 0 24 32" fill="none" xmlns="http://www.w3.org/2000/svg">
<path d="M12 32C9.93181 32 8.25 30.3182 8.25 28.25C8.25 27.7822 8.33787 27.1138 8.49081 26.375H1.6875C1.16931 26.375 0.75 25.9557 0.75 25.4375V18.3172C0.75 18.0242 0.886437 17.7486 1.11987 17.5711C1.35331 17.3953 1.65544 17.3367 1.93744 17.4136C3.08188 17.7304 4.06787 17.875 4.5 17.875C5.53363 17.875 6.375 17.0336 6.375 16C6.375 14.9664 5.53363 14.125 4.5 14.125C4.06787 14.125 3.08188 14.2696 1.93744 14.5864C1.65363 14.6642 1.35244 14.6066 1.11987 14.4289C0.886437 14.2513 0.75 13.9757 0.75 13.6828V6.5625C0.75 6.04431 1.16931 5.625 1.6875 5.625H8.49081C8.33787 4.88619 8.25 4.21781 8.25 3.75C8.25 1.68181 9.93181 0 12 0C14.0682 0 15.75 1.68181 15.75 3.75C15.75 4.21781 15.6621 4.88619 15.5092 5.625H22.3125C22.8307 5.625 23.25 6.04431 23.25 6.5625V13.6828C23.25 13.9758 23.1136 14.2514 22.8801 14.4289C22.6494 14.6066 22.3473 14.6651 22.0626 14.5864C20.9181 14.2696 19.9321 14.125 19.5 14.125C18.4664 14.125 17.625 14.9664 17.625 16C17.625 17.0336 18.4664 17.875 19.5 17.875C19.9321 17.875 20.9181 17.7304 22.0626 17.4136C22.3464 17.3348 22.6476 17.3943 22.8801 17.5711C23.1136 17.7487 23.25 18.0243 23.25 18.3172V25.4375C23.25 25.9557 22.8307 26.375 22.3125 26.375H15.5092C15.6621 27.1138 15.75 27.7822 15.75 28.25C15.75 30.3182 14.0682 32 12 32Z" fill="url(#paint0_linear)"/>
<defs>
<linearGradient id="paint0_linear" x1="12" y1="32" x2="12" y2="0" gradientUnits="userSpaceOnUse">
<stop stop-color="#00B59C"/>
<stop offset="1" stop-color="#9CFFAC"/>
</linearGradient>
</defs>
</svg>
